<?xml version="1.0" encoding="UTF-8"?>
<svg version="1.1" xmlns="http://www.w3.org/2000/svg" width="225" height="225">
<path d="M0 0 C74.25 0 148.5 0 225 0 C225 74.25 225 148.5 225 225 C150.75 225 76.5 225 0 225 C0 150.75 0 76.5 0 0 Z " fill="#01A88D" transform="translate(0,0)"/>
<path d="M0 0 C1.26831665 0.37137085 1.26831665 0.37137085 2.56225586 0.75024414 C5.37825939 1.60541617 8.15563991 2.53994018 10.9375 3.5 C11.89462891 3.82097656 12.85175781 4.14195313 13.83789062 4.47265625 C20.85226739 6.85226739 20.85226739 6.85226739 22 8 C22.08865208 10.8843382 22.11521296 13.74462158 22.09765625 16.62890625 C22.0962413 17.49313705 22.09482635 18.35736786 22.09336853 19.24778748 C22.08775239 22.01939292 22.07519719 24.7909188 22.0625 27.5625 C22.05748708 29.4368478 22.05292381 31.31119685 22.04882812 33.18554688 C22.03862681 37.79042021 22.01905467 42.3951206 22 47 C31.24 47 40.48 47 50 47 C50 42.05 50 37.1 50 32 C48.35 31.34 46.7 30.68 45 30 C42.1132116 26.61548946 41.41862348 23.44954473 41.5703125 19 C42.34604493 15.38931815 44.39052182 13.54734775 47 11 C50.06429776 9.46785112 52.6165642 9.77061452 56 10 C59.62342508 11.6470114 62.16816086 13.4327343 64 17 C64.41101954 21.3157052 64.45931262 23.88797997 62.8125 27.875 C60.71153639 30.33819871 58.99767966 30.9108267 56 32 C56.00523682 32.57032959 56.01047363 33.14065918 56.01586914 33.72827148 C56.03658221 36.29800323 56.0496419 38.86771747 56.0625 41.4375 C56.07087891 42.33533203 56.07925781 43.23316406 56.08789062 44.15820312 C56.09111328 45.01220703 56.09433594 45.86621094 56.09765625 46.74609375 C56.10289307 47.53685303 56.10812988 48.3276123 56.11352539 49.14233398 C56 51 56 51 55 52 C52.55169574 52.08843793 50.13179401 52.11528752 47.68359375 52.09765625 C46.58701195 52.09553383 46.58701195 52.09553383 45.46827698 52.09336853 C43.12464368 52.08775408 40.78110461 52.07519922 38.4375 52.0625 C36.85221492 52.05748686 35.26692834 52.05292363 33.68164062 52.04882812 C29.7877239 52.03777997 25.89387795 52.02050572 22 52 C22 56.62 22 61.24 22 66 C29.17228446 66.00532661 36.34294167 65.97180107 43.51489258 65.90234375 C45.95428958 65.88418165 48.39378953 65.8766156 50.83325195 65.87988281 C54.34146809 65.88273908 57.8475483 65.84742891 61.35546875 65.8046875 C62.44522507 65.81378143 63.53498138 65.82287537 64.65776062 65.83224487 C70.05537249 65.88412445 70.05537249 65.88412445 74.76089478 63.64605713 C76.29155253 61.85187417 76.29155253 61.85187417 78 59 C81.22859847 57.38570077 84.50993653 57.40429343 88 58 C91.02508145 59.73602105 93.41790069 61.83580137 95 65 C95.68128376 71.81283762 95.68128376 71.81283762 93.953125 74.82421875 C90.82207185 78.62752744 89.13366332 79.88663367 84.25 80.375 C80.89941932 80.35058775 79.15105468 79.75601354 76.5625 77.625 C74 75 74 75 73 73 C56.17 72.67 39.34 72.34 22 72 C22 76.62 22 81.24 22 86 C23.1144751 85.95810547 24.2289502 85.91621094 25.37719727 85.87304688 C29.5345466 85.72762572 33.69167433 85.63618852 37.85083008 85.56054688 C39.64646268 85.52045352 41.44183634 85.46596014 43.23657227 85.39648438 C58.29090832 84.82855381 58.29090832 84.82855381 62.6340332 87.80541992 C64.4609375 90.01171875 64.4609375 90.01171875 65.75537109 92.23706055 C66.83989753 94.19408455 66.83989753 94.19408455 68.94384766 94.42504883 C70.96468155 94.31769639 72.98266013 94.16010634 75 94 C78.56024087 95.27631276 80.45730568 96.34876682 82.875 99.25 C84.33017877 102.80710366 84.46888682 105.18192158 84 109 C81.97333762 112.70390021 80.51955484 114.65363011 77 117 C70.32662295 117.76579737 70.32662295 117.76579737 67.1796875 115.94921875 C65.00990918 114.17251621 63.26245559 112.52491118 62 110 C62.04850868 107.30115335 62.19544044 104.61630514 62.35546875 101.921875 C61.8682627 97.91714839 60.64692918 96.04304885 58 93 C54.98649994 92.38031039 52.74860397 92.15956549 49.734375 92.1953125 C48.94097717 92.18160614 48.14757935 92.16789978 47.33013916 92.15377808 C44.80284979 92.11646837 42.27752573 92.12019299 39.75 92.125 C38.03382344 92.10687365 36.31767291 92.08607115 34.6015625 92.0625 C30.40071222 92.01064085 26.20115283 91.99556974 22 92 C22 96.62 22 101.24 22 106 C30.25 106 38.5 106 47 106 C48.23000963 108.46001926 48.09272912 110.55017373 48.13867188 113.25708008 C48.11914775 119.44337759 48.11914775 119.44337759 50.36328125 125.03125 C52.1497871 126.49627769 52.1497871 126.49627769 55 128 C56.60306924 131.20613847 56.48740461 134.52139997 56 138 C53.90637823 141.43952148 51.88092169 143.78028175 48 145 C43.0392239 145.45097965 39.88301272 145.23584393 36 142 C33.65516107 138.5609029 32.98919219 136.6160449 33.0625 132.4375 C34.09262128 128.66038864 35.20221549 126.71784781 38 124 C39.32 123.67 40.64 123.34 42 123 C42 119.04 42 115.08 42 111 C35.4 111 28.8 111 22 111 C22 122.88 22 134.76 22 147 C9.75330396 151.89867841 9.75330396 151.89867841 4.3125 153.8125 C2.48138672 154.47185547 2.48138672 154.47185547 0.61328125 155.14453125 C-5.84016596 156.67242848 -10.52251142 155.08350113 -16.125 151.796875 C-17.80335937 150.82041016 -17.80335937 150.82041016 -19.515625 149.82421875 C-20.37510742 149.3125415 -20.37510742 149.3125415 -21.25195312 148.79052734 C-22.98952332 147.75623626 -24.73573904 146.7381043 -26.484375 145.72265625 C-28.70267278 144.42183416 -30.90774527 143.09812316 -33.09716797 141.74926758 C-35.86375619 140.01474737 -35.86375619 140.01474737 -38.37548828 138.8815918 C-40.3203125 137.87109375 -40.3203125 137.87109375 -43 135 C-43.55861772 130.41382716 -43.15660746 125.91198998 -42.875 121.3125 C-42.44472392 112.55585758 -42.44472392 112.55585758 -45.66894531 104.73046875 C-50.23579517 100.93562898 -55.43374084 98.91483915 -61 97 C-63.84751231 94.15248769 -62.50457688 84.44975638 -62.56982422 80.44604492 C-62.60643042 78.69882768 -62.66094949 76.95188851 -62.73388672 75.20581055 C-63.32699624 60.79215595 -63.32699624 60.79215595 -60.26855469 56.66162109 C-57.14408006 54.53945183 -53.94617966 53.34754698 -50.41845703 52.05175781 C-47.79468833 50.92108452 -45.99558316 50.05851206 -44 48 C-42.68293702 42.14475347 -43.38521001 36.18394905 -43.70703125 30.23632812 C-43.89036124 21.09395119 -43.89036124 21.09395119 -41.42407227 18.0637207 C-39.0356102 16.44842134 -36.60101145 15.24432642 -34 14 C-31.89550322 12.71455517 -29.80097228 11.41270106 -27.71484375 10.09765625 C-25.45776695 8.74918745 -23.19861366 7.4041888 -20.9375 6.0625 C-20.0861145 5.53837524 -20.0861145 5.53837524 -19.2175293 5.00366211 C-7.11587535 -2.4375346 -7.11587535 -2.4375346 0 0 Z " fill="#03A88D" transform="translate(96,35)"/>
<path d="M0 0 C1.26831665 0.37137085 1.26831665 0.37137085 2.56225586 0.75024414 C5.37825939 1.60541617 8.15563991 2.53994018 10.9375 3.5 C11.89462891 3.82097656 12.85175781 4.14195313 13.83789062 4.47265625 C20.85226739 6.85226739 20.85226739 6.85226739 22 8 C22.08865208 10.8843382 22.11521296 13.74462158 22.09765625 16.62890625 C22.0962413 17.49313705 22.09482635 18.35736786 22.09336853 19.24778748 C22.08775239 22.01939292 22.07519719 24.7909188 22.0625 27.5625 C22.05748708 29.4368478 22.05292381 31.31119685 22.04882812 33.18554688 C22.03862681 37.79042021 22.01905467 42.3951206 22 47 C31.24 47 40.48 47 50 47 C50 42.05 50 37.1 50 32 C48.35 31.34 46.7 30.68 45 30 C42.1132116 26.61548946 41.41862348 23.44954473 41.5703125 19 C42.34604493 15.38931815 44.39052182 13.54734775 47 11 C50.06429776 9.46785112 52.6165642 9.77061452 56 10 C59.62342508 11.6470114 62.16816086 13.4327343 64 17 C64.41101954 21.3157052 64.45931262 23.88797997 62.8125 27.875 C60.71153639 30.33819871 58.99767966 30.9108267 56 32 C56.00523682 32.57032959 56.01047363 33.14065918 56.01586914 33.72827148 C56.03658221 36.29800323 56.0496419 38.86771747 56.0625 41.4375 C56.07087891 42.33533203 56.07925781 43.23316406 56.08789062 44.15820312 C56.09111328 45.01220703 56.09433594 45.86621094 56.09765625 46.74609375 C56.10289307 47.53685303 56.10812988 48.3276123 56.11352539 49.14233398 C56 51 56 51 55 52 C52.55169574 52.08843793 50.13179401 52.11528752 47.68359375 52.09765625 C46.58701195 52.09553383 46.58701195 52.09553383 45.46827698 52.09336853 C43.12464368 52.08775408 40.78110461 52.07519922 38.4375 52.0625 C36.85221492 52.05748686 35.26692834 52.05292363 33.68164062 52.04882812 C29.7877239 52.03777997 25.89387795 52.02050572 22 52 C22 56.62 22 61.24 22 66 C29.17228446 66.00532661 36.34294167 65.97180107 43.51489258 65.90234375 C45.95428958 65.88418165 48.39378953 65.8766156 50.83325195 65.87988281 C54.34146809 65.88273908 57.8475483 65.84742891 61.35546875 65.8046875 C62.44522507 65.81378143 63.53498138 65.82287537 64.65776062 65.83224487 C70.05537249 65.88412445 70.05537249 65.88412445 74.76089478 63.64605713 C76.29155253 61.85187417 76.29155253 61.85187417 78 59 C81.22859847 57.38570077 84.50993653 57.40429343 88 58 C91.02508145 59.73602105 93.41790069 61.83580137 95 65 C95.68128376 71.81283762 95.68128376 71.81283762 93.953125 74.82421875 C90.82207185 78.62752744 89.13366332 79.88663367 84.25 80.375 C80.89941932 80.35058775 79.15105468 79.75601354 76.5625 77.625 C74 75 74 75 73 73 C56.17 72.67 39.34 72.34 22 72 C22 76.62 22 81.24 22 86 C23.1144751 85.95810547 24.2289502 85.91621094 25.37719727 85.87304688 C29.5345466 85.72762572 33.69167433 85.63618852 37.85083008 85.56054688 C39.64646268 85.52045352 41.44183634 85.46596014 43.23657227 85.39648438 C58.29090832 84.82855381 58.29090832 84.82855381 62.6340332 87.80541992 C64.4609375 90.01171875 64.4609375 90.01171875 65.75537109 92.23706055 C66.83989753 94.19408455 66.83989753 94.19408455 68.94384766 94.42504883 C70.96468155 94.31769639 72.98266013 94.16010634 75 94 C78.56024087 95.27631276 80.45730568 96.34876682 82.875 99.25 C84.33017877 102.80710366 84.46888682 105.18192158 84 109 C81.97333762 112.70390021 80.51955484 114.65363011 77 117 C70.32662295 117.76579737 70.32662295 117.76579737 67.1796875 115.94921875 C65.00990918 114.17251621 63.26245559 112.52491118 62 110 C62.04850868 107.30115335 62.19544044 104.61630514 62.35546875 101.921875 C61.8682627 97.91714839 60.64692918 96.04304885 58 93 C54.98649994 92.38031039 52.74860397 92.15956549 49.734375 92.1953125 C48.94097717 92.18160614 48.14757935 92.16789978 47.33013916 92.15377808 C44.80284979 92.11646837 42.27752573 92.12019299 39.75 92.125 C38.03382344 92.10687365 36.31767291 92.08607115 34.6015625 92.0625 C30.40071222 92.01064085 26.20115283 91.99556974 22 92 C22 96.62 22 101.24 22 106 C30.25 106 38.5 106 47 106 C48.23000963 108.46001926 48.09272912 110.55017373 48.13867188 113.25708008 C48.11914775 119.44337759 48.11914775 119.44337759 50.36328125 125.03125 C52.1497871 126.49627769 52.1497871 126.49627769 55 128 C56.60306924 131.20613847 56.48740461 134.52139997 56 138 C53.90637823 141.43952148 51.88092169 143.78028175 48 145 C43.0392239 145.45097965 39.88301272 145.23584393 36 142 C33.65516107 138.5609029 32.98919219 136.6160449 33.0625 132.4375 C34.09262128 128.66038864 35.20221549 126.71784781 38 124 C39.32 123.67 40.64 123.34 42 123 C42 119.04 42 115.08 42 111 C35.4 111 28.8 111 22 111 C22 122.88 22 134.76 22 147 C9.75330396 151.89867841 9.75330396 151.89867841 4.3125 153.8125 C2.48138672 154.47185547 2.48138672 154.47185547 0.61328125 155.14453125 C-5.84016596 156.67242848 -10.52251142 155.08350113 -16.125 151.796875 C-17.80335937 150.82041016 -17.80335937 150.82041016 -19.515625 149.82421875 C-20.37510742 149.3125415 -20.37510742 149.3125415 -21.25195312 148.79052734 C-22.98952332 147.75623626 -24.73573904 146.7381043 -26.484375 145.72265625 C-28.70267278 144.42183416 -30.90774527 143.09812316 -33.09716797 141.74926758 C-35.86375619 140.01474737 -35.86375619 140.01474737 -38.37548828 138.8815918 C-40.3203125 137.87109375 -40.3203125 137.87109375 -43 135 C-43.55861772 130.41382716 -43.15660746 125.91198998 -42.875 121.3125 C-42.44472392 112.55585758 -42.44472392 112.55585758 -45.66894531 104.73046875 C-50.23579517 100.93562898 -55.43374084 98.91483915 -61 97 C-63.84751231 94.15248769 -62.50457688 84.44975638 -62.56982422 80.44604492 C-62.60643042 78.69882768 -62.66094949 76.95188851 -62.73388672 75.20581055 C-63.32699624 60.79215595 -63.32699624 60.79215595 -60.26855469 56.66162109 C-57.14408006 54.53945183 -53.94617966 53.34754698 -50.41845703 52.05175781 C-47.79468833 50.92108452 -45.99558316 50.05851206 -44 48 C-42.68293702 42.14475347 -43.38521001 36.18394905 -43.70703125 30.23632812 C-43.89036124 21.09395119 -43.89036124 21.09395119 -41.42407227 18.0637207 C-39.0356102 16.44842134 -36.60101145 15.24432642 -34 14 C-31.89550322 12.71455517 -29.80097228 11.41270106 -27.71484375 10.09765625 C-25.45776695 8.74918745 -23.19861366 7.4041888 -20.9375 6.0625 C-20.0861145 5.53837524 -20.0861145 5.53837524 -19.2175293 5.00366211 C-7.11587535 -2.4375346 -7.11587535 -2.4375346 0 0 Z M-14.83496094 8.79394531 C-17.68934567 11.70240499 -17.78676419 13.45868924 -17.9765625 17.4921875 C-17.91035722 19.9550239 -17.79143372 22.41690193 -17.625 24.875 C-17.57988281 26.13570312 -17.53476563 27.39640625 -17.48828125 28.6953125 C-17.37061366 31.80173693 -17.20651754 34.89842434 -17 38 C-18.98 38 -20.96 38 -23 38 C-23 30.41 -23 22.82 -23 15 C-24.93875 15.94875 -26.8775 16.8975 -28.875 17.875 C-29.96554688 18.40867187 -31.05609375 18.94234375 -32.1796875 19.4921875 C-35.03882547 20.84535937 -35.03882547 20.84535937 -37 23 C-38.54831349 30.92037531 -38.99469844 40.15418614 -37 48 C-33.49061693 53.14007882 -27.83032229 55.42457249 -22 57 C-18.19245545 56.37361938 -15.53069006 54.59676469 -12.3125 52.5 C-11.33925781 51.8709375 -10.36601563 51.241875 -9.36328125 50.59375 C-7.14051259 49.20414445 -7.14051259 49.20414445 -6 48 C-5.91348389 46.58429877 -5.89295096 45.164405 -5.90234375 43.74609375 C-5.90556641 42.89208984 -5.90878906 42.03808594 -5.91210938 41.15820312 C-5.92048828 40.26037109 -5.92886719 39.36253906 -5.9375 38.4375 C-5.94201172 37.53580078 -5.94652344 36.63410156 -5.95117188 35.70507812 C-5.96299775 33.46998686 -5.9794778 31.23502563 -6 29 C-4.02 29 -2.04 29 0 29 C1.46978987 47.70240137 1.46978987 47.70240137 -2.50341797 53.00732422 C-6.5275955 56.55175667 -11.14296866 58.80412251 -16 61 C-18.21998512 63.21998512 -17.625 67.24910035 -17.625 70.19140625 C-16.82511685 73.78588114 -15.66474733 74.63260151 -12.625 76.625 C-11.10596272 77.45926492 -9.56668581 78.25907639 -8 79 C-7.01 79.495 -7.01 79.495 -6 80 C-6.495 81.98 -6.495 81.98 -7 84 C-10.57012176 82.97996521 -13.04363767 81.96793967 -16.0625 79.75 C-18.79802276 77.67323611 -18.79802276 77.67323611 -21.4375 78.5 C-22.88519002 79.3474283 -24.32949224 80.2009099 -25.76171875 81.07421875 C-27.4786021 82.10002956 -29.23801637 83.05374953 -31 84 C-32.485 83.505 -32.485 83.505 -34 83 C-34 82.01 -34 81.02 -34 80 C-31.84765625 78.4296875 -31.84765625 78.4296875 -29.0625 76.875 C-24.62880423 74.75180617 -24.62880423 74.75180617 -22.375 70.8125 C-21.91853991 67.38904935 -21.89278991 65.30025557 -23 62 C-25.14914863 59.82003112 -27.55572984 58.29370625 -30.1875 56.75 C-30.85974609 56.35554688 -31.53199219 55.96109375 -32.22460938 55.5546875 C-35.11254072 54.01370758 -37.2294806 52.99643278 -40.53125 53.01171875 C-43.98484041 54.39424782 -47.1214229 56.15968472 -50.3125 58.0625 C-51.28026367 58.62807617 -51.28026367 58.62807617 -52.26757812 59.20507812 C-53.84878152 60.13037493 -55.4249146 61.06432681 -57 62 C-57 65.3 -57 68.6 -57 72 C-51.31497465 70.35433477 -46.23318364 67.70967216 -41 65 C-40.67 66.32 -40.34 67.64 -40 69 C-40.51498047 69.22961426 -41.02996094 69.45922852 -41.56054688 69.69580078 C-49.84331337 73.48436136 -49.84331337 73.48436136 -57 79 C-58.47751523 83.94890916 -58.10330582 87.99546251 -57 93 C-54.44921084 94.56464388 -51.88746037 96.1010896 -49.3125 97.625 C-48.2306543 98.29402344 -48.2306543 98.29402344 -47.12695312 98.9765625 C-42.99975251 101.52250037 -42.99975251 101.52250037 -38.34375 101.5 C-37.5703125 101.005 -36.796875 100.51 -36 100 C-35.04480469 99.43023437 -34.08960937 98.86046875 -33.10546875 98.2734375 C-32.14253906 97.64695312 -31.17960937 97.02046875 -30.1875 96.375 C-28.72376953 95.42753906 -28.72376953 95.42753906 -27.23046875 94.4609375 C-26.49441406 93.97882813 -25.75835937 93.49671875 -25 93 C-24.34 94.32 -23.68 95.64 -23 97 C-24.77029446 98.29240512 -26.54125498 99.58389793 -28.3125 100.875 C-29.79169922 101.95394531 -29.79169922 101.95394531 -31.30078125 103.0546875 C-33.17523115 104.4055935 -35.07752993 105.71835329 -37 107 C-37.80385281 111.03550349 -37.69470077 115.14403235 -37.75 119.25 C-37.8428125 120.94962891 -37.8428125 120.94962891 -37.9375 122.68359375 C-38.1403491 128.92998305 -38.1403491 128.92998305 -35.05761719 134.06665039 C-32.76209364 135.60485654 -30.50163417 136.83377793 -28 138 C-26.39125 138.9590625 -26.39125 138.9590625 -24.75 139.9375 C-21.38761156 141.23660462 -20.42921283 141.06277257 -17 140 C-14.1976027 138.47588271 -11.54158224 136.74857852 -8.875 135 C-7.45752594 134.08055737 -6.03832132 133.16377576 -4.6171875 132.25 C-3.99440918 131.84265625 -3.37163086 131.4353125 -2.72998047 131.015625 C-1 130 -1 130 2 129 C2.66 130.65 3.32 132.3 4 134 C3.31550781 134.2475 2.63101563 134.495 1.92578125 134.75 C-1.50813451 136.21709352 -4.6404887 138.04799305 -7.8125 140 C-8.40998047 140.35578125 -9.00746094 140.7115625 -9.62304688 141.078125 C-11.11890414 141.99444442 -12.56477862 142.99135247 -14 144 C-14 144.66 -14 145.32 -14 146 C-9.79409277 149.14276757 -9.79409277 149.14276757 -4.765625 149.99609375 C2.5312117 148.67264788 9.04967277 145.67320278 16 143 C16 128.81 16 114.62 16 100 C10.04968961 102.97515519 4.51090589 105.77136135 -1.1015625 109.20703125 C-1.70890228 109.57728928 -2.31624207 109.9475473 -2.94198608 110.32902527 C-4.83863564 111.48645219 -6.73186353 112.64933796 -8.625 113.8125 C-9.92816045 114.6090921 -11.23154443 115.40531865 -12.53515625 116.20117188 C-15.69268777 118.1299145 -18.84718145 120.06356042 -22 122 C-22.33 120.35 -22.66 118.7 -23 117 C-22.49364014 116.69932617 -21.98728027 116.39865234 -21.46557617 116.08886719 C-19.03796338 114.64523005 -16.61275651 113.19759186 -14.1875 111.75 C-13.39279297 111.27820313 -12.59808594 110.80640625 -11.77929688 110.3203125 C-9.97291741 109.24063742 -8.1946549 108.1132759 -6.43823242 106.95410156 C-3.56097891 105.31882945 -1.20378936 104.36758556 1.8972168 103.35058594 C7.87084718 101.05262213 12.57846274 98.58129631 16 93 C19.65415522 81.02891425 17.85870129 66.93931306 17.30462646 54.62750244 C17.10903264 49.82225445 17.0232345 45.01512548 16.92773438 40.20703125 C16.72491261 30.79970069 16.40140117 21.40080677 16 12 C12.7318568 10.82569926 9.46007485 9.66188744 6.1875 8.5 C5.25873047 8.16613281 4.32996094 7.83226562 3.37304688 7.48828125 C2.0340332 7.01455078 2.0340332 7.01455078 0.66796875 6.53125 C-0.15421143 6.23798828 -0.9763916 5.94472656 -1.82348633 5.64257812 C-6.97320841 4.12221149 -10.48158594 6.10216383 -14.83496094 8.79394531 Z " fill="#F3FAF9" transform="translate(96,35)"/>
<path d="M0 0 C3.0625 0.3125 3.0625 0.3125 5 1.4375 C6.0625 3.3125 6.0625 3.3125 5.9375 6.375 C5.0625 9.3125 5.0625 9.3125 2.0625 11.3125 C-1.0625 11.0625 -1.0625 11.0625 -3.9375 10.3125 C-5.31875018 7.54999964 -5.12829306 5.36518901 -4.9375 2.3125 C-2.9375 0.3125 -2.9375 0.3125 0 0 Z " fill="#0EAB91" transform="translate(148.9375,50.6875)"/>
<path d="M0 0 C2.4375 0.75 2.4375 0.75 4.4375 2.75 C3.86057692 9.32692308 3.86057692 9.32692308 2.4375 10.75 C-2.78098739 11.20378151 -2.78098739 11.20378151 -5.5 9.625 C-6.5625 7.75 -6.5625 7.75 -6.4375 4.6875 C-5.31039351 0.90364248 -4.04478927 -0.39461359 0 0 Z " fill="#09AA8F" transform="translate(141.5625,163.25)"/>
<path d="M0 0 C2.4375 0.75 2.4375 0.75 4.4375 2.75 C4.75 5.75 4.75 5.75 4.4375 8.75 C1.20496204 10.90502531 0.18599077 11.21856135 -3.5625 10.75 C-5.4375 9.625 -5.4375 9.625 -6.5625 7.75 C-6.4375 4.6875 -6.4375 4.6875 -5.5625 1.75 C-2.5625 -0.25 -2.5625 -0.25 0 0 Z " fill="#09AA8F" transform="translate(169.5625,135.25)"/>
<path d="M0 0 C3 0.25 3 0.25 5 2.25 C5.25 5.25 5.25 5.25 5 8.25 C3 10.25 3 10.25 0 10.5 C-3 10.25 -3 10.25 -5 8.25 C-5.25 5.25 -5.25 5.25 -5 2.25 C-3 0.25 -3 0.25 0 0 Z " fill="#00A78B" transform="translate(180,98.75)"/>
</svg>
