<svg xmlns="http://www.w3.org/2000/svg" viewBox="0 0 24 24"><rect width="24" height="24" rx="3" fill="#125740"/><path fill="#fff" d="M5 7.2c0-1.5 1.2-2.7 2.8-2.7h3.4v2.4H8c-.4 0-.7.3-.7.6 0 .4.3.6.7.6h.9c1.7 0 3.1 1.3 3.1 2.9 0 1.6-1.4 2.9-3.1 2.9H5v-2.4h3.5c.4 0 .7-.3.7-.6 0-.4-.3-.6-.7-.6h-.9C5.9 10.3 5 9 5 7.2z"/><path fill="#F7DF1E" d="M14 13h6v6h-6z"/><path fill="#000" d="M16.3 17.3c0 .4.2.6.5.6s.5-.2.5-.6V14h.7v3.3c0 .8-.4 1.2-1.2 1.2s-1.2-.4-1.2-1.2h.7zm2.7-.3c.1.3.3.5.7.5.3 0 .5-.1.5-.3 0-.2-.2-.3-.6-.5l-.2-.1c-.6-.2-.9-.5-.9-1 0-.6.4-1 1.1-1 .5 0 .8.2 1.1.7l-.6.4c-.1-.2-.3-.3-.5-.3-.2 0-.4.1-.4.3 0 .2.1.3.5.4l.2.1c.7.3 1 .6 1 1.2 0 .7-.5 1.1-1.3 1.1s-1.2-.4-1.4-.9l.6-.4z"/></svg>
