<?xml version="1.0" encoding="UTF-8"?>
<svg version="1.1" xmlns="http://www.w3.org/2000/svg" width="163" height="166">
<path d="M0 0 C10.86779625 8.38695041 18.04472188 18.25785627 23 31 C23.32097656 31.78117187 23.64195312 32.56234375 23.97265625 33.3671875 C29.37747675 49.1040137 26.82946045 67.41933953 19.8125 82.0625 C11.93083676 97.52710456 0.14539495 107.75791422 -16 114 C-16.82371094 114.3403125 -17.64742188 114.680625 -18.49609375 115.03125 C-33.74299688 120.30057972 -51.93004446 117.86407137 -66.3515625 111.52734375 C-82.17376256 103.69035239 -92.66162075 91.2986895 -99 75 C-99.48146484 73.82824219 -99.48146484 73.82824219 -99.97265625 72.6328125 C-105.14680931 57.56760406 -103.08514062 39.32873044 -96.6796875 25.05859375 C-88.62961983 9.24438978 -76.51316199 -1.61572919 -60 -8 C-59.17628906 -8.3403125 -58.35257813 -8.680625 -57.50390625 -9.03125 C-38.4980704 -15.59966687 -16.32588949 -10.74017636 0 0 Z " fill="#264659" transform="translate(119,30)"/>
<path d="M0 0 C7.22894543 3.34064903 11.32444913 7.58907888 15.203125 14.44140625 C17.92051246 23.34839848 16.19680075 30.81192736 12.328125 39.12890625 C9.11604459 44.60133954 3.44332035 47.71263772 -2.4765625 49.75 C-14.93394041 51.90011683 -25.19055489 49.91813635 -35.671875 42.94140625 C-43.47744981 37.2099543 -50.72690837 30.79478427 -56.671875 23.12890625 C-56.671875 22.46890625 -56.671875 21.80890625 -56.671875 21.12890625 C-60.57215725 18.52871809 -64.14622069 18.97805111 -68.671875 19.12890625 C-70.37811578 24.24762858 -70.17093191 28.57628475 -68.546875 33.62890625 C-66.30728016 37.80948328 -63.63440977 41.43772216 -60.671875 45.12890625 C-61.661875 45.62390625 -61.661875 45.62390625 -62.671875 46.12890625 C-70.03208479 41.60514094 -76.56202828 36.70589758 -79.3046875 28.15625 C-80.48028607 21.66544516 -80.31403191 15.75470879 -77.01171875 9.94921875 C-73.85679774 5.66294123 -69.63996247 2.09469626 -64.671875 0.12890625 C-56.97795248 -0.74632832 -50.0135348 -0.60619973 -43.671875 4.12890625 C-37.52538318 9.15537067 -33.2367722 15.70891253 -28.671875 22.12890625 C-24.52341871 27.91491107 -19.44664502 31.87064958 -12.671875 34.12890625 C-4.81390377 34.83935781 -4.81390377 34.83935781 2.453125 32.37890625 C6.00051318 28.12204044 6.72621893 24.88268285 6.57421875 19.4375 C6.02412393 14.27708667 4.16235293 10.5885145 0.265625 7.25390625 C-3.88295846 4.25280332 -6.20080731 3.91613639 -11.296875 3.56640625 C-12.48539062 3.48261719 -13.67390625 3.39882813 -14.8984375 3.3125 C-15.81367187 3.25191406 -16.72890625 3.19132812 -17.671875 3.12890625 C-12.7102192 -2.05827936 -6.73353445 -2.19528974 0 0 Z " fill="#E2EFF2" transform="translate(112.671875,57.87109375)"/>
<path d="M0 0 C4.93154866 4.79295713 7.08167079 8.45012355 7.3125 15.375 C7.25975428 19.95634241 6.0226018 22.47363123 3 26 C-1.08874098 29.7569791 -4.6114628 29.49473579 -9.9609375 29.3515625 C-14.33061569 28.84607273 -17.39615914 27.45350773 -21 25 C-21.5775 24.63777344 -22.155 24.27554688 -22.75 23.90234375 C-26.36083763 21.3417738 -28.44553324 18.55338099 -29.26953125 14.25390625 C-28.58321829 8.51473841 -23.45920335 4.01496016 -19.18359375 0.51171875 C-12.92015133 -3.48467723 -6.23338317 -4.33626655 0 0 Z " fill="#2C4958" transform="translate(113,64)"/>
<path d="M0 0 C3.75473352 3.45435484 7.13633946 7.28469469 10.5625 11.0625 C13.63709628 14.45005381 16.73343203 17.79492036 20 21 C19.34 21 18.68 21 18 21 C18 21.66 18 22.32 18 23 C19.98 23.99 21.96 24.98 24 26 C24 27.32 24 28.64 24 30 C20.04350948 31.97824526 15.31075903 31.43165923 11 31 C8.09416624 30.00003677 5.62782217 28.57205256 3 27 C1.96875 26.5875 0.9375 26.175 -0.125 25.75 C-4.50078723 23.08647734 -8.05015571 18.93536218 -9.6484375 13.99609375 C-10.45414558 9.42146229 -10.9774027 5.50369647 -8.375 1.5 C-5.23686002 -0.48198314 -3.65126535 -0.67064058 0 0 Z " fill="#29485A" transform="translate(52,76)"/>
<path d="M0 0 C4.79046548 2.44042581 7.59148819 5.18297638 10 10 C10.30925996 12.76338734 10.19274495 15.20519828 10 18 C9.2575 17.21625 8.515 16.4325 7.75 15.625 C3.79578473 11.85052179 1.049193 10.39747151 -4.578125 10.4609375 C-8.98196444 11.44114692 -12.54754888 14.09571577 -16.265625 16.56640625 C-19 18 -19 18 -21.359375 17.71484375 C-23 17 -23 17 -23.71875 15.3125 C-24 13 -24 13 -22.59375 10.5625 C-16.07480096 2.58408476 -10.85418982 -3.07007194 0 0 Z " fill="#B0D0DC" transform="translate(108,63)"/>
<path d="M0 0 C0.66 0 1.32 0 2 0 C2.09796875 0.65226562 2.1959375 1.30453125 2.296875 1.9765625 C3.38494245 8.33612912 4.48939697 13.3580738 9.91015625 17.4375 C14.82449399 20.48837634 18.97077429 21.57118799 24.73828125 21.6640625 C27.52272763 22.07764176 28.89712605 23.18103809 31 25 C30 28 30 28 28 29 C20.78327051 29.74111195 15.00754439 29.22448327 9 25 C4.39977857 20.922531 -1.55838926 15.52651009 -2.1875 9.078125 C-2.30098614 5.19122481 -2.19324393 3.28986589 0 0 Z " fill="#B0D0DC" transform="translate(46,78)"/>
<path d="M0 0 C0 0.99 0 1.98 0 3 C-2.3359375 4.97265625 -2.3359375 4.97265625 -5.375 7.0625 C-9.37755628 9.80402928 -9.37755628 9.80402928 -13 13 C-16.01305957 12.61121812 -17.39685311 11.73543126 -20 10 C-19.65719742 7.18412167 -19.21208242 6.18346813 -17.03125 4.296875 C-10.9758265 0.59633842 -7.09168629 -0.68629222 0 0 Z " fill="#D1BB78" transform="translate(110,75)"/>
<path d="M0 0 C-0.33 0.99 -0.66 1.98 -1 3 C-0.21059642 5.03392839 -0.21059642 5.03392839 1 7.0625 C2.1875 9.16015625 2.1875 9.16015625 3 11 C2.67 11.66 2.34 12.32 2 13 C0.04233719 13.08082094 -1.91626728 13.13910778 -3.875 13.1875 C-4.96554688 13.22230469 -6.05609375 13.25710937 -7.1796875 13.29296875 C-8.11039062 13.19628906 -9.04109375 13.09960938 -10 13 C-12 10 -12 10 -12 7.625 C-9.96241393 2.27633657 -5.74158422 -0.84435062 0 0 Z " fill="#2A4859" transform="translate(110,80)"/>
<path d="M0 0 C3 1 3 1 4 3 C6.02463255 3.65213292 6.02463255 3.65213292 8 4 C8.33 3.34 8.66 2.68 9 2 C9.37125 2.99 9.7425 3.98 10.125 5 C12.0402265 9.52437564 14.9422783 13.1902173 18 17 C17.34 17.33 16.68 17.66 16 18 C9.00618595 13.7014305 3.73146391 9.44775927 0 2 C0 1.34 0 0.68 0 0 Z " fill="#D5E7EE" transform="translate(34,86)"/>
<path d="M0 0 C0.99 0.66 1.98 1.32 3 2 C0.62293019 3.1885349 -0.38898779 2.92528861 -3 2.6875 C-8.87074543 2.59204072 -13.59854708 5.22338799 -18 9 C-18 9.99 -18 10.98 -18 12 C-15.04622502 14.36980013 -15.04622502 14.36980013 -11 14 C-10.67 15.65 -10.34 17.3 -10 19 C-14.91319147 17.46462766 -19.32235164 14.58639157 -23 11 C-23 10.01 -23 9.02 -23 8 C-21.2365625 7.13375 -21.2365625 7.13375 -19.4375 6.25 C-16.67014392 4.88820791 -14.08753803 3.42323475 -11.5 1.75 C-7.11533525 -0.44233238 -4.83718555 -0.48371855 0 0 Z " fill="#475A58" transform="translate(109,73)"/>
<path d="M0 0 C0.74443359 0.48919922 0.74443359 0.48919922 1.50390625 0.98828125 C4.86324726 3.14922357 8.07640438 5.12554015 11.8125 6.5625 C15.03047655 8.01374433 16.24405083 9.0045573 18 12 C12.24169504 12.4606644 9.49365922 11.61446502 5 8 C2.125 5.4375 2.125 5.4375 0 3 C0 2.01 0 1.02 0 0 Z " fill="#C6B880" transform="translate(51,86)"/>
<path d="M0 0 C0.61875 0.33 1.2375 0.66 1.875 1 C0.225 2.32 -1.425 3.64 -3.125 5 C-3.785 4.67 -4.445 4.34 -5.125 4 C-7.329364 3.77049681 -9.53892173 3.58924067 -11.75 3.4375 C-12.93851562 3.35371094 -14.12703125 3.26992188 -15.3515625 3.18359375 C-16.72441406 3.09271484 -16.72441406 3.09271484 -18.125 3 C-13.12998346 -2.22206275 -6.73557111 -2.15538275 0 0 Z " fill="#C5D6DB" transform="translate(113.125,58)"/>
<path d="M0 0 C-0.33 0.66 -0.66 1.32 -1 2 C-1.66 2 -2.32 2 -3 2 C-3.33 2.66 -3.66 3.32 -4 4 C-4 3.34 -4 2.68 -4 2 C-5.66641006 2.990755 -5.66641006 2.990755 -7 5 C-7.93554836 11.89966913 -6.01771706 15.50912001 -2 21 C-1.34 21.99 -0.68 22.98 0 24 C-0.99 24 -1.98 24 -3 24 C-4.5703125 22.390625 -4.5703125 22.390625 -6.125 20.25 C-6.64320312 19.55390625 -7.16140625 18.8578125 -7.6953125 18.140625 C-10.31712442 13.83896951 -10.71841674 8.93785025 -10 4 C-7.25492723 -0.22318887 -4.85423095 -0.44129372 0 0 Z " fill="#445E6A" transform="translate(52,76)"/>
<path d="M0 0 C0.44730469 0.39832031 0.89460938 0.79664062 1.35546875 1.20703125 C7.50610464 6.93018629 7.50610464 6.93018629 15.3125 9.1875 C16.199375 9.125625 17.08625 9.06375 18 9 C15.11912454 6.59927045 12.43595166 4.52708963 9 3 C11.5625 2.125 11.5625 2.125 15 2 C17.6317915 3.70724998 19.80915266 5.76378008 22 8 C21.01 8.495 21.01 8.495 20 9 C20 9.66 20 10.32 20 11 C15.2427287 12.315841 12.71793128 12.21629708 8.3125 9.875 C4.78693731 7.71514163 2.21365061 5.56109011 0 2 C0 1.34 0 0.68 0 0 Z " fill="#545D59" transform="translate(50,88)"/>
<path d="M0 0 C2.96404505 2.80804268 5.44499019 5.18315774 7 9 C0.68141593 9.49557522 0.68141593 9.49557522 -2.75 7 C-3.86375 6.01 -3.86375 6.01 -5 5 C-5.99 5 -6.98 5 -8 5 C-7.67 4.34 -7.34 3.68 -7 3 C-4.69 3.33 -2.38 3.66 0 4 C0 2.68 0 1.36 0 0 Z " fill="#2C495A" transform="translate(57,82)"/>
<path d="M0 0 C3.99455527 0.61454696 6.74466336 2.70646737 10 5 C9.67 6.32 9.34 7.64 9 9 C8.34 9 7.68 9 7 9 C6.67 9.99 6.34 10.98 6 12 C5.34 12 4.68 12 4 12 C4 11.01 4 10.02 4 9 C4.66 8.67 5.32 8.34 6 8 C5.67 7.01 5.34 6.02 5 5 C2.89415562 4.19436362 2.89415562 4.19436362 0.4375 3.8125 C-0.38878906 3.65394531 -1.21507813 3.49539062 -2.06640625 3.33203125 C-2.70449219 3.22246094 -3.34257813 3.11289063 -4 3 C-2.68 2.67 -1.36 2.34 0 2 C0 1.34 0 0.68 0 0 Z " fill="#34505F" transform="translate(70,97)"/>
<path d="M0 0 C3.49992803 -0.05869332 6.9997272 -0.09382709 10.5 -0.125 C11.48226562 -0.14175781 12.46453125 -0.15851562 13.4765625 -0.17578125 C19.35918665 -0.21499874 24.36364503 0.29567362 30 2 C29.34 2.66 28.68 3.32 28 4 C27.01 4 26.02 4 25 4 C25 3.34 25 2.68 25 2 C24.360625 2.185625 23.72125 2.37125 23.0625 2.5625 C22.381875 2.706875 21.70125 2.85125 21 3 C20.67 2.67 20.34 2.34 20 2 C18.58429877 1.91348389 17.164405 1.89295096 15.74609375 1.90234375 C14.46508789 1.90717773 14.46508789 1.90717773 13.15820312 1.91210938 C12.26037109 1.92048828 11.36253906 1.92886719 10.4375 1.9375 C9.53580078 1.94201172 8.63410156 1.94652344 7.70507812 1.95117188 C5.46998686 1.96299775 3.23502563 1.9794778 1 2 C0.67 1.34 0.34 0.68 0 0 Z " fill="#2E444F" transform="translate(70,19)"/>
<path d="M0 0 C5.43312554 2.19912224 8.75855096 5.21197723 12 10 C13.30351848 13.64985176 12.95727467 16.27726518 12 20 C11.67 20 11.34 20 11 20 C10.90203125 19.33613281 10.8040625 18.67226562 10.703125 17.98828125 C9.48160451 10.70578726 9.48160451 10.70578726 5 5 C2.696871 3.78157047 0.45946434 2.89865043 -2 2 C-1.34 1.34 -0.68 0.68 0 0 Z " fill="#3C5663" transform="translate(107,61)"/>
<path d="M0 0 C0.78375 0.04125 1.5675 0.0825 2.375 0.125 C2.045 1.115 1.715 2.105 1.375 3.125 C0.715 3.125 0.055 3.125 -0.625 3.125 C-0.625 4.115 -0.625 5.105 -0.625 6.125 C-2.605 6.125 -4.585 6.125 -6.625 6.125 C-3.85227273 0.18344156 -3.85227273 0.18344156 0 0 Z " fill="#E3BD6C" transform="translate(98.625,78.875)"/>
<path d="M0 0 C0.4125 0.38671875 0.825 0.7734375 1.25 1.171875 C5.5586764 5.05737783 9.7225368 7.59273608 15 10 C12.53953904 10.89721507 11.42208342 11.17742086 8.96484375 10.14453125 C1.95101615 5.53621678 1.95101615 5.53621678 0 2 C0 1.34 0 0.68 0 0 Z " fill="#475951" transform="translate(50,88)"/>
<path d="M0 0 C-0.33 0.99 -0.66 1.98 -1 3 C-4.63 3.33 -8.26 3.66 -12 4 C-7.73879649 -0.26120351 -5.91872136 -0.10960595 0 0 Z " fill="#D5E8F0" transform="translate(107,57)"/>
<path d="M0 0 C0.66 0.33 1.32 0.66 2 1 C0.68 2.65 -0.64 4.3 -2 6 C0.97 6.495 0.97 6.495 4 7 C3.67 7.66 3.34 8.32 3 9 C0.03824877 8.38722388 -1.38058783 7.74627478 -4 6 C-3.6875 4.125 -3.6875 4.125 -3 2 C-2.01 1.34 -1.02 0.68 0 0 Z " fill="#C7BB86" transform="translate(94,79)"/>
<path d="M0 0 C0.66 0.66 1.32 1.32 2 2 C0.54462432 2.83848804 -0.91440373 3.67063934 -2.375 4.5 C-3.59316406 5.19609375 -3.59316406 5.19609375 -4.8359375 5.90625 C-7 7 -7 7 -9 7 C-8.67 6.01 -8.34 5.02 -8 4 C-5.69747517 2.93097061 -3.3627974 1.92824183 -1 1 C-0.67 0.67 -0.34 0.34 0 0 Z " fill="#293F4C" transform="translate(113,136)"/>
<path d="M0 0 C0.66 0 1.32 0 2 0 C1.34 1.65 0.68 3.3 0 5 C0.66 5 1.32 5 2 5 C2 5.99 2 6.98 2 8 C1.01 8 0.02 8 -1 8 C-1.625 5.125 -1.625 5.125 -2 2 C-1.34 1.34 -0.68 0.68 0 0 Z " fill="#33494C" transform="translate(100,84)"/>
<path d="M0 0 C0.65234375 1.765625 0.65234375 1.765625 1 4 C0.00390625 5.921875 0.00390625 5.921875 -1.4375 7.75 C-2.14712891 8.67039062 -2.14712891 8.67039062 -2.87109375 9.609375 C-3.24363281 10.06828125 -3.61617187 10.5271875 -4 11 C-4.33 10.01 -4.66 9.02 -5 8 C-4.34 7.34 -3.68 6.68 -3 6 C-2.31246699 4.34183216 -1.64438717 2.67540664 -1 1 C-0.67 0.67 -0.34 0.34 0 0 Z " fill="#263D4A" transform="translate(134,115)"/>
<path d="M0 0 C3.465 1.98 3.465 1.98 7 4 C6.34 4.66 5.68 5.32 5 6 C2.875 5.625 2.875 5.625 1 5 C0.67 3.35 0.34 1.7 0 0 Z " fill="#2F4B62" transform="translate(51,100)"/>
<path d="M0 0 C1.98 0.99 3.96 1.98 6 3 C5.67 3.99 5.34 4.98 5 6 C3.02 5.34 1.04 4.68 -1 4 C-0.67 2.68 -0.34 1.36 0 0 Z " fill="#344F5E" transform="translate(41,98)"/>
<path d="M0 0 C2.97 0.495 2.97 0.495 6 1 C6 1.99 6 2.98 6 4 C6.99 4.33 7.98 4.66 9 5 C8.01 5.495 8.01 5.495 7 6 C6.236875 5.34 5.47375 4.68 4.6875 4 C2.15722061 1.70149462 2.15722061 1.70149462 -1 2 C-0.67 1.34 -0.34 0.68 0 0 Z " fill="#374B44" transform="translate(50,85)"/>
<path d="M0 0 C0.99 0.33 1.98 0.66 3 1 C2.40138258 3.35171131 1.73075648 5.6859378 1 8 C0.01 8.495 0.01 8.495 -1 9 C-0.67 6.03 -0.34 3.06 0 0 Z " fill="#2C4450" transform="translate(18,67)"/>
<path d="M0 0 C3.96 0 7.92 0 12 0 C12 0.33 12 0.66 12 1 C11.31292969 1.13277344 10.62585938 1.26554687 9.91796875 1.40234375 C8.56638672 1.66724609 8.56638672 1.66724609 7.1875 1.9375 C5.84751953 2.19853516 5.84751953 2.19853516 4.48046875 2.46484375 C1.88602829 2.97741153 1.88602829 2.97741153 -1 4 C-0.67 2.68 -0.34 1.36 0 0 Z " fill="#37515F" transform="translate(95,61)"/>
<path d="M0 0 C0.66 0.33 1.32 0.66 2 1 C0.375 3.0625 0.375 3.0625 -2 5 C-5.25 4.75 -5.25 4.75 -8 4 C-6.66666667 3.33333333 -5.33333333 2.66666667 -4 2 C-3.29875 1.608125 -2.5975 1.21625 -1.875 0.8125 C-1.25625 0.544375 -0.6375 0.27625 0 0 Z " fill="#425A67" transform="translate(116,104)"/>
<path d="M0 0 C2.90975956 2.40371442 3.64375394 4.25941633 4 8 C3.5625 10.8125 3.5625 10.8125 3 13 C2.67 13 2.34 13 2 13 C1.66307215 11.39658445 1.33058907 9.79223445 1 8.1875 C0.814375 7.29417969 0.62875 6.40085937 0.4375 5.48046875 C0 3 0 3 0 0 Z " fill="#506A74" transform="translate(116,68)"/>
<path d="M0 0 C0.99 0.99 1.98 1.98 3 3 C0.03 5.475 0.03 5.475 -3 8 C-1.125 2.25 -1.125 2.25 0 0 Z " fill="#2B414F" transform="translate(25,50)"/>
<path d="M0 0 C3.00617269 3.00617269 2.59585316 5.82381598 3 10 C2.01 9.67 1.02 9.34 0 9 C0 6.03 0 3.06 0 0 Z " fill="#2D4352" transform="translate(139,56)"/>
</svg>
