<?xml version="1.0" encoding="UTF-8"?>
<svg version="1.1" xmlns="http://www.w3.org/2000/svg" width="1024" height="1024" viewBox="305 125 450 742">
<path d="M0 0 C1.81177734 0.39058594 1.81177734 0.39058594 3.66015625 0.7890625 C32.62435051 7.90540874 56.11778936 27.02894617 72 52 C76 58.80208333 76 58.80208333 76 63 C71.69704334 61.38122936 67.64914518 59.34042876 63.5625 57.25 C26.40378612 38.58819968 -10.41892152 32.87893931 -50.37988281 46.07275391 C-68.33677572 52.42760661 -84.63125481 61.51061056 -99 74 C-99.65484375 74.52207031 -100.3096875 75.04414063 -100.984375 75.58203125 C-106.4430617 79.96588805 -112.83322985 85.82863226 -114 93 C-115.4996976 116.24531279 -102.84810582 138.28264005 -88.296875 155.41796875 C-80.34053228 164.36208871 -71.9101846 171.38918542 -62 178 C-61.19175781 178.55429687 -60.38351562 179.10859375 -59.55078125 179.6796875 C-30.40176698 198.50191312 4.84340726 201.27419044 38.05566406 194.36425781 C90.87034627 182.701761 142.97186328 162.6061634 192 140 C192.66 140.66 193.32 141.32 194 142 C191.65649442 149.08151278 189.3081499 156.16140778 186.95654297 163.24023438 C186.15824487 165.64514375 185.36102737 168.05041213 184.56494141 170.45605469 C183.41597549 173.92739852 182.26304168 177.39740351 181.109375 180.8671875 C180.75816589 181.93113739 180.40695679 182.99508728 180.04510498 184.09127808 C179.05258656 187.06927426 178.03713753 190.03726443 177 193 C176.66842896 193.94780334 176.33685791 194.89560669 175.99523926 195.87213135 C175.66455444 196.76269226 175.33386963 197.65325317 174.99316406 198.57080078 C174.705401 199.35464142 174.41763794 200.13848206 174.12115479 200.94607544 C171.6611425 205.45274992 167.13652442 206.93925045 162.5859375 208.828125 C161.63550819 209.22615074 161.63550819 209.22615074 160.6658783 209.63221741 C159.29249002 210.20707757 157.91811682 210.77958911 156.5428772 211.3500061 C152.79500623 212.90593418 149.05595039 214.48278091 145.31640625 216.05859375 C144.54151352 216.38478195 143.76662079 216.71097015 142.96824646 217.04704285 C130.72867725 222.210009 118.59669264 227.61942809 106.45996094 233.01855469 C103.42088448 234.36998272 100.37974932 235.71662713 97.33691406 237.05957031 C66.9312018 250.47970593 36.61178649 264.00317636 8 281 C7.2064209 281.46712402 6.4128418 281.93424805 5.59521484 282.41552734 C-11.00016968 292.21163107 -26.91429233 303.00613613 -42 315 C-42.84433594 315.66257812 -43.68867188 316.32515625 -44.55859375 317.0078125 C-53.47955282 324.05893855 -62.49640852 331.20055539 -70.3984375 339.39453125 C-72.17177315 341.17219211 -74.03302405 342.80141544 -75.9375 344.4375 C-82.88018032 350.45894005 -88.91325252 356.93021254 -94.66015625 364.1015625 C-96.99239701 366.99058194 -99.39787046 369.8047127 -101.8125 372.625 C-112.4808272 385.46007272 -121.36445197 399.17268977 -129 414 C-129.42023438 414.80920898 -129.84046875 415.61841797 -130.2734375 416.45214844 C-153.67402892 461.9946631 -161.59600292 513.66772806 -146 563 C-137.72339307 587.72931915 -122.36191223 610.58943787 -102 627 C-101.05640625 627.76957031 -100.1128125 628.53914062 -99.140625 629.33203125 C-61.56549271 659.44248706 -14.83235312 669.63709903 32.42919922 664.46142578 C66.09594812 660.11094339 99.12484051 649.03872314 129 633 C129.67256836 632.6390625 130.34513672 632.278125 131.03808594 631.90625 C169.25396602 611.22767139 206.58674986 580.68826306 219.97265625 537.78125 C226.37367413 514.22161006 227.79259167 489.93126735 215.33203125 468.07421875 C213.63897968 465.31226487 211.86793808 462.64624562 210 460 C209.32710937 459.04673828 209.32710937 459.04673828 208.640625 458.07421875 C187.86264646 431.49062856 146.93211528 427.5974057 116.234375 421.43359375 C53.8682675 408.89298015 53.8682675 408.89298015 35.8828125 382.9375 C25.56020919 366.83252554 21.13544501 348.52196939 24.765625 329.5859375 C26.30010546 322.63470927 28.39695686 316.17664539 32 310 C32.66 310.33 33.32 310.66 34 311 C34.64982691 312.95834202 35.21951255 314.94351867 35.75 316.9375 C40.17050741 331.75348639 48.94938748 341.1478894 62.30078125 348.6875 C64.63601501 349.82301164 66.50761857 350.40145437 69 351 C69.96639404 351.44609619 70.93278809 351.89219238 71.9284668 352.35180664 C76.8624336 354.48581991 82.00658794 355.64545291 87.2265625 356.87109375 C88.31796539 357.12990829 89.40936829 357.38872284 90.53384399 357.65538025 C104.21685394 360.83397683 118.03982458 363.235969 131.86865234 365.67993164 C163.33284891 371.26470536 193.04752953 377.99106682 218 399 C218.99580078 399.82371094 218.99580078 399.82371094 220.01171875 400.6640625 C240.27575423 419.08591294 249.14866466 449.77741694 252 476 C252.08652832 476.77746582 252.17305664 477.55493164 252.26220703 478.35595703 C256.8588855 523.36626119 239.00937387 571.00253809 216 609 C215.53835449 609.76441406 215.07670898 610.52882813 214.60107422 611.31640625 C208.28863445 621.69621483 201.65091172 631.56006913 194 641 C192.91138672 642.37671875 192.91138672 642.37671875 191.80078125 643.78125 C185.88027403 651.1792267 179.52125319 658.1333845 173 665 C172.21496094 665.82757812 171.42992187 666.65515625 170.62109375 667.5078125 C165.11825865 673.15830865 159.1856371 678.11616588 153 683 C152.05898438 683.76957031 151.11796875 684.53914062 150.1484375 685.33203125 C125.38286431 705.13809043 82.28016972 732.14278759 49 730 C48.67 730.66 48.34 731.32 48 732 C45.4453125 732.37890625 45.4453125 732.37890625 42.125 732.5625 C37.46084281 732.82181836 37.46084281 732.82181836 32.81030273 733.24731445 C23.16426871 734.31531881 13.50262924 734.10902386 3.8125 734.0625 C1.98372518 734.05747456 0.15494903 734.0529135 -1.67382812 734.04882812 C-6.11591895 734.03790619 -10.55794441 734.02069923 -15 734 C-15 733.34 -15 732.68 -15 732 C-15.82564453 731.97873047 -15.82564453 731.97873047 -16.66796875 731.95703125 C-39.01905571 730.67487587 -61.58916526 722.41980189 -81.18432617 711.953125 C-83.13828241 710.92740963 -85.11519569 709.95764014 -87.09765625 708.98828125 C-100.50115172 702.30918002 -112.80020942 692.18364049 -123.75 682.05859375 C-125.72196994 680.2543782 -127.74553931 678.56732407 -129.8125 676.875 C-146.53082065 662.20862615 -158.84801681 642.54821275 -169 623 C-169.60199219 621.87335937 -170.20398438 620.74671875 -170.82421875 619.5859375 C-187.12665811 587.13306287 -193.45681304 550.44630497 -193.3125 514.4375 C-193.31034485 513.46756104 -193.3081897 512.49762207 -193.30596924 511.49829102 C-193.25365444 496.80781091 -192.75992568 482.46624145 -190 468 C-189.79600586 466.90413574 -189.59201172 465.80827148 -189.38183594 464.67919922 C-184.7756597 440.46492631 -177.91783287 417.56044137 -168 395 C-167.49533203 393.85192871 -167.49533203 393.85192871 -166.98046875 392.68066406 C-156.00656815 368.01124806 -141.81987557 345.08723272 -125 324 C-124.45698242 323.31276855 -123.91396484 322.62553711 -123.35449219 321.91748047 C-107.62126369 302.02892217 -90.15550148 282.47766703 -70 267 C-67.95247576 265.36145961 -65.91078693 263.71560064 -63.875 262.0625 C-62.96492187 261.33160156 -62.05484375 260.60070312 -61.1171875 259.84765625 C-58.92865845 258.17385261 -58.92865845 258.17385261 -58 256 C-58.99773437 255.87044922 -58.99773437 255.87044922 -60.015625 255.73828125 C-63.89899487 254.77760467 -67.24229782 253.0565852 -70.75 251.1875 C-71.48935791 250.7944165 -72.22871582 250.40133301 -72.99047852 249.99633789 C-81.48051834 245.35880055 -89.2743597 239.80129759 -97 234 C-97.56493164 233.57702637 -98.12986328 233.15405273 -98.71191406 232.71826172 C-104.73605326 228.16938385 -104.73605326 228.16938385 -107 226 C-107 225.34 -107 224.68 -107 224 C-107.56589844 223.76667969 -108.13179688 223.53335938 -108.71484375 223.29296875 C-128.55882093 212.06500901 -142.9235707 179.70485211 -148.88671875 159.15234375 C-149.26198765 157.76935532 -149.63327896 156.38527955 -150 155 C-150.33644531 153.78441406 -150.67289062 152.56882812 -151.01953125 151.31640625 C-155.3858679 132.47536455 -154.70185003 111.45611339 -149 93 C-148.66097656 91.83339844 -148.32195312 90.66679687 -147.97265625 89.46484375 C-143.20383649 74.68319958 -135.34851041 59.59118868 -125 48 C-124.16082031 47.04480469 -123.32164062 46.08960938 -122.45703125 45.10546875 C-121.55534434 44.09056189 -120.65299903 43.0762396 -119.75 42.0625 C-118.89921875 41.10472656 -118.0484375 40.14695313 -117.171875 39.16015625 C-115 37 -115 37 -113 37 C-113 36.34 -113 35.68 -113 35 C-88.68807247 11.54732978 -55.15126517 -0.36759258 -21.875 -1.875 C-20.84455566 -1.92430664 -19.81411133 -1.97361328 -18.75244141 -2.02441406 C-12.2062609 -2.22616172 -6.35202475 -1.55004863 0 0 Z " fill="#7DD99A" transform="translate(499,130)"/>
<path d="M0 0 C2.18178939 2.73102389 3.70907104 5.31552836 5.05859375 8.53515625 C19.87734941 42.98538168 43.53375175 73.18823762 75 94 C73.515 94.495 73.515 94.495 72 95 C64.76782412 90.93190106 58.57517639 84.98389177 52.54296875 79.3515625 C50.45367975 77.41953181 48.32603823 75.61209101 46.125 73.8125 C26.01177536 56.20316659 9.37573217 29.92951301 0 5 C-0.1796875 2.08203125 -0.1796875 2.08203125 0 0 Z " fill="#7DD99A" transform="translate(323,733)"/>
<path d="M0 0 C2.49045207 2.94602257 4.00616065 6.06245685 5.54785156 9.58276367 C16.38586128 34.25174118 34.90619149 54.82137959 57 70 C56.01 70.33 55.02 70.66 54 71 C51.2578125 69.26953125 51.2578125 69.26953125 48.125 66.8125 C46.58199219 65.61560547 46.58199219 65.61560547 45.0078125 64.39453125 C44.01523437 63.60433594 43.02265625 62.81414062 42 62 C41.04867187 61.28199219 40.09734375 60.56398438 39.1171875 59.82421875 C38.06917969 58.92123047 38.06917969 58.92123047 37 58 C37 57.34 37 56.68 37 56 C36.43410156 55.76667969 35.86820312 55.53335938 35.28515625 55.29296875 C22.07453734 47.81824249 12.09177174 28.70870301 5.3125 15.875 C4.78285645 14.87887695 4.25321289 13.88275391 3.70751953 12.85644531 C3.2226709 11.91124023 2.73782227 10.96603516 2.23828125 9.9921875 C1.589198 8.72930908 1.589198 8.72930908 0.92700195 7.44091797 C-0.07976574 4.78996634 -0.17974025 2.81122541 0 0 Z " fill="#7DD99A" transform="translate(355,298)"/>
<path d="M0 0 C3.2950906 2.66699415 4.24772771 5.83909991 5.6875 9.75 C13.3526098 29.601719 25.31025279 45.73191629 40 61 C39.505 61.99 39.505 61.99 39 63 C21.35746709 46.3672146 7.01567243 26.54120555 0 3 C0 2.01 0 1.02 0 0 Z " fill="#7DD99A" transform="translate(350,690)"/>
<path d="M0 0 C0.66 0.33 1.32 0.66 2 1 C1.41734375 1.83917969 0.8346875 2.67835938 0.234375 3.54296875 C-9.28598945 17.43643668 -17.61937799 32.02052909 -25.1875 47.0625 C-25.56205322 47.80604736 -25.93660645 48.54959473 -26.32250977 49.31567383 C-27.90097726 52.51625824 -29.22150884 55.51999616 -30 59 C-30.66 59 -31.32 59 -32 59 C-32.33 59.66 -32.66 60.32 -33 61 C-32.44930152 56.02076794 -30.79556376 52.07495357 -28.5 47.6875 C-28.14325195 46.99309814 -27.78650391 46.29869629 -27.41894531 45.58325195 C-26.66403446 44.11860006 -25.90517029 42.65597973 -25.14257812 41.1953125 C-24.04428975 39.08509689 -22.96573915 36.96584447 -21.890625 34.84375 C-17.81357921 26.87992057 -13.39004137 19.19847547 -8.625 11.625 C-8.11291992 10.80990967 -7.60083984 9.99481934 -7.07324219 9.1550293 C-4.91862556 5.7826325 -2.92665128 2.75568954 0 0 Z " fill="#7DD99A" transform="translate(364,468)"/>
<path d="M0 0 C0.33 0.99 0.66 1.98 1 3 C1.66 3 2.32 3 3 3 C7.6127696 21.2973194 8.49065521 39.24594589 7 58 C6.34 58 5.68 58 5 58 C4.98541748 57.1656543 4.97083496 56.33130859 4.95581055 55.47167969 C4.65078729 39.80016655 4.19364461 24.41133545 1.34765625 8.953125 C0.81827186 5.97905538 0.40952817 2.99270589 0 0 Z " fill="#7DD99A" transform="translate(744,580)"/>
<path d="M0 0 C0.66 0.33 1.32 0.66 2 1 C2.64982691 2.95834202 3.21951255 4.94351867 3.75 6.9375 C7.85697655 20.70264119 16.01498698 30.35288269 28.25 37.80859375 C30 39 30 39 31 41 C21.61227411 38.83360172 12.7689965 30.44511273 7.375 22.65234375 C5.8230287 20.14203017 4.38626868 17.60522908 3 15 C2.35804688 13.79730469 2.35804688 13.79730469 1.703125 12.5703125 C-0.53972407 8.00780445 -1.56358108 5.08163852 0 0 Z " fill="#7DD99A" transform="translate(531,440)"/>
<path d="M0 0 C3.25042891 1.39506426 5.07371792 2.96783394 7.3125 5.6875 C15.86996103 15.70116764 25.60340372 23.20891347 36.875 30 C38.421875 30.99 38.421875 30.99 40 32 C40 32.66 40 33.32 40 34 C25.48501757 29.78323868 8.39111432 14.50800479 0 2 C0 1.34 0 0.68 0 0 Z " fill="#7DD99A" transform="translate(405,281)"/>
<path d="M0 0 C0.99 0.33 1.98 0.66 3 1 C2.43152344 1.6290625 1.86304688 2.258125 1.27734375 2.90625 C0.11912109 4.19015625 0.11912109 4.19015625 -1.0625 5.5 C-1.89136719 6.4178125 -2.72023438 7.335625 -3.57421875 8.28125 C-5.54722115 10.49253771 -7.46636041 12.73378073 -9.375 15 C-16.32028302 22.9581368 -24.55324309 29.70143065 -33 36 C-33.66 35.67 -34.32 35.34 -35 35 C-31.25237557 31.1394528 -27.30502893 27.64649218 -23.1875 24.1875 C-14.47883072 16.77755147 -6.99409089 9.07743712 0 0 Z " fill="#7DD99A" transform="translate(697,708)"/>
<path d="M0 0 C6.82999257 0.84183629 12.28842502 8.63686403 16.42041016 13.76171875 C29 30.17258799 29 30.17258799 29 37 C26 36 26 36 24.9296875 33.91796875 C24.58164062 33.01691406 24.23359375 32.11585938 23.875 31.1875 C19.00096286 19.99312389 10.98060825 11.6372504 2.30859375 3.30078125 C1.54675781 2.54152344 0.78492188 1.78226563 0 1 C0 0.67 0 0.34 0 0 Z " fill="#7DD99A" transform="translate(546,156)"/>
<path d="M0 0 C3.88991522 1.38816582 7.31770237 3.26921136 10.87744141 5.32666016 C20.91670831 11.12601073 31.23396979 15.72700797 42 20 C42 20.33 42 20.66 42 21 C36.28380499 21.52708952 32.36139138 19.73880882 27.3125 17.375 C26.51811523 17.01180664 25.72373047 16.64861328 24.90527344 16.27441406 C18.78843609 13.44609196 12.80203511 10.43406672 7 7 C6.35289062 6.61972656 5.70578125 6.23945312 5.0390625 5.84765625 C2.13250474 4.03958628 1.11623648 3.34870944 0 0 Z " fill="#7DD99A" transform="translate(401,830)"/>
<path d="M0 0 C0.99 0 1.98 0 3 0 C4.72603366 2.13378229 6.20828781 4.20205974 7.6875 6.5 C8.34298828 7.50148071 8.34298828 7.50148071 9.01171875 8.52319336 C23.56016044 31.23663076 23.56016044 31.23663076 23 43 C20.99383954 39.9907593 19.9266013 37.32383873 18.6875 33.9375 C15.05846154 24.40072453 10.64474368 16.18076463 4.8671875 7.76171875 C3.14974982 5.22149188 1.55094286 2.64430941 0 0 Z " fill="#7DD99A" transform="translate(721,536)"/>
<path d="M0 0 C0.71542969 0.72574219 1.43085937 1.45148437 2.16796875 2.19921875 C12.85204466 12.76540141 23.98163613 19.597933 38 25 C38 25.33 38 25.66 38 26 C27.24561096 26.79964349 16.81640474 18.70666827 9 12 C8.41476562 11.53464844 7.82953125 11.06929687 7.2265625 10.58984375 C4.38235208 8.32141251 1.88187941 6.13646569 0 3 C0 2.01 0 1.02 0 0 Z " fill="#7DD99A" transform="translate(538,514)"/>
<path d="M0 0 C0.33 0 0.66 0 1 0 C0.44933538 5.89144795 -0.81577903 10.94727257 -2.8125 16.5 C-5.73036242 24.89435736 -7.99586705 33.34686125 -10 42 C-10.66 42 -11.32 42 -12 42 C-11.44616582 35.433109 -10.21055932 29.53211699 -8.25 23.25 C-7.98558105 22.3847168 -7.72116211 21.51943359 -7.44873047 20.62792969 C-5.2739892 13.62346679 -2.79705877 6.78224869 0 0 Z " fill="#7DD99A" transform="translate(358,563)"/>
<path d="M0 0 C13.36929696 -0.13751277 26.65131342 0.25619259 40 1 C36.71801011 3.18799326 35.72334897 3.25615085 31.9140625 3.265625 C30.40199219 3.27142578 30.40199219 3.27142578 28.859375 3.27734375 C27.79203125 3.26832031 26.7246875 3.25929688 25.625 3.25 C24.54476563 3.24613281 23.46453125 3.24226562 22.3515625 3.23828125 C14.73306091 3.15586957 7.46067184 2.63202197 0 1 C0 0.67 0 0.34 0 0 Z " fill="#7DD99A" transform="translate(486,861)"/>
<path d="M0 0 C0.7109375 1.61328125 0.7109375 1.61328125 1 4 C-0.3359375 6.85546875 -0.3359375 6.85546875 -2.375 10.1875 C-3.11469691 11.42155212 -3.85154786 12.6573134 -4.5859375 13.89453125 C-4.97749023 14.55146973 -5.36904297 15.2084082 -5.77246094 15.88525391 C-7.96059884 19.65487413 -9.97582944 23.51558689 -12 27.375 C-12.39751465 28.13063232 -12.7950293 28.88626465 -13.20458984 29.66479492 C-14.13842636 31.44212986 -15.06952729 33.22090172 -16 35 C-16.66 34.67 -17.32 34.34 -18 34 C-12.63536108 22.21808615 -6.92109937 10.94613589 0 0 Z " fill="#7DD99A" transform="translate(377,526)"/>
<path d="M0 0 C5.34391066 4.27206612 6.19280811 12.5436098 7 19 C7.4630207 27.65887182 7.25783764 36.33665539 7 45 C6.67 45 6.34 45 6 45 C5.95512451 44.31599121 5.91024902 43.63198242 5.86401367 42.92724609 C4.7771185 25.70748171 4.7771185 25.70748171 1.68359375 8.76953125 C0.96587935 5.86176263 0.46019701 2.95840933 0 0 Z " fill="#7DD99A" transform="translate(719,604)"/>
<path d="M0 0 C0.33 0 0.66 0 1 0 C0.41245698 14.00468296 -0.23242398 28.00398614 -1 42 C-1.33 42 -1.66 42 -2 42 C-2.0496911 37.14365099 -2.08585664 32.28745224 -2.10986328 27.4309082 C-2.11987851 25.78114237 -2.1334946 24.13139409 -2.15087891 22.48168945 C-2.17532542 20.10102995 -2.18652803 17.72060653 -2.1953125 15.33984375 C-2.20563507 14.61039047 -2.21595764 13.88093719 -2.22659302 13.12937927 C-2.22761619 8.38680589 -1.49418829 4.50583078 0 0 Z " fill="#7DD99A" transform="translate(309,605)"/>
<path d="M0 0 C9.35620863 1.31705313 17.78811898 8.20928377 25 14 C24.67 14.99 24.34 15.98 24 17 C23.03513672 16.25556641 23.03513672 16.25556641 22.05078125 15.49609375 C15.00400019 10.19844237 7.84998651 5.99363384 0 2 C0 1.34 0 0.68 0 0 Z " fill="#7DD99A" transform="translate(520,138)"/>
<path d="M0 0 C0.33 0 0.66 0 1 0 C0.47837285 6.2666714 -1.05167695 11.39058167 -3.4375 17.1875 C-3.75009766 17.96802734 -4.06269531 18.74855469 -4.38476562 19.55273438 C-5.24832874 21.70525216 -6.12298571 23.85293713 -7 26 C-7.66777003 27.6662249 -8.335062 29.33264291 -9 31 C-9.66 31 -10.32 31 -11 31 C-10.38427216 27.52749597 -9.49183407 24.38194248 -8.22265625 21.09375 C-7.87396484 20.18496094 -7.52527344 19.27617188 -7.16601562 18.33984375 C-6.80185547 17.40269531 -6.43769531 16.46554687 -6.0625 15.5 C-5.70220703 14.56285156 -5.34191406 13.62570312 -4.97070312 12.66015625 C-3.34118131 8.42880126 -1.68941004 4.20783472 0 0 Z " fill="#7DD99A" transform="translate(740,677)"/>
<path d="M0 0 C0.33 0.99 0.66 1.98 1 3 C-11.48519362 16.6332574 -11.48519362 16.6332574 -18 23 C-18.99 22.67 -19.98 22.34 -21 22 C-19.37660195 20.29115995 -17.70680947 18.62553283 -16 17 C-15.34 17 -14.68 17 -14 17 C-13.773125 16.44441406 -13.54625 15.88882813 -13.3125 15.31640625 C-11.62302816 12.33468957 -9.46497875 10.3129083 -7 7.9375 C-4.31789712 5.34506045 -2.07210825 3.10816238 0 0 Z " fill="#7DD99A" transform="translate(683,779)"/>
<path d="M0 0 C0.66 0 1.32 0 2 0 C0.54736359 4.82722253 -1.44191714 9.08026924 -3.8125 13.5 C-4.14314453 14.13808594 -4.47378906 14.77617188 -4.81445312 15.43359375 C-7.11866145 19.75895985 -9.75296321 23.32795839 -13 27 C-13.33 26.01 -13.66 25.02 -14 24 C-12.70286533 21.70162082 -11.37224092 19.59886534 -9.875 17.4375 C-6.10827872 11.81708018 -2.82552627 6.16220303 0 0 Z " fill="#7DD99A" transform="translate(715,679)"/>
<path d="M0 0 C2.0625 0.4375 2.0625 0.4375 4 1 C1.10545522 2.93943036 -1.79086236 4.87619712 -4.6875 6.8125 C-5.50412109 7.35970703 -6.32074219 7.90691406 -7.16210938 8.47070312 C-9.43561931 9.98944458 -11.71585504 11.49731513 -14 13 C-14.97582031 13.64324219 -15.95164062 14.28648437 -16.95703125 14.94921875 C-17.96830078 15.46935547 -17.96830078 15.46935547 -19 16 C-19.66 15.67 -20.32 15.34 -21 15 C-18.8550328 12.71443409 -16.66571086 11.01581384 -14.0234375 9.3359375 C-13.270625 8.85382812 -12.5178125 8.37171875 -11.7421875 7.875 C-10.96101562 7.38 -10.17984375 6.885 -9.375 6.375 C-7.81965261 5.38384725 -6.26493096 4.39171167 -4.7109375 3.3984375 C-4.02306152 2.96192871 -3.33518555 2.52541992 -2.62646484 2.07568359 C-1.03321314 1.09978785 -1.03321314 1.09978785 0 0 Z " fill="#7DD99A" transform="translate(657,745)"/>
<path d="M0 0 C0.99 0.33 1.98 0.66 3 1 C-3.27 7.27 -9.54 13.54 -16 20 C-16.33 19.01 -16.66 18.02 -17 17 C-11.39 11.39 -5.78 5.78 0 0 Z " fill="#7DD99A" transform="translate(413,411)"/>
<path d="M0 0 C0 0.33 0 0.66 0 1 C-11.34615583 1.63922005 -22.63216352 2.16938829 -34 2 C-24.46991766 -3.22138141 -10.413527 -1.63349443 0 0 Z " fill="#7DD99A" transform="translate(507,166)"/>
<path d="M0 0 C7.21330414 1.94954166 13.81629324 5.87752882 20 10 C20 10.66 20 11.32 20 12 C20.639375 12.28875 21.27875 12.5775 21.9375 12.875 C24 14 24 14 25 16 C21.16634619 15.39233459 18.85743654 13.58752704 15.8125 11.25 C11.58818217 8.0860143 7.37989916 5.39973516 2.6796875 3.0078125 C1 2 1 2 0 0 Z " fill="#7DD99A" transform="translate(678,565)"/>
<path d="M0 0 C0.33 0 0.66 0 1 0 C0.43737174 6.21027647 -1.00166779 11.62830173 -3.0625 17.5 C-3.34416016 18.32242187 -3.62582031 19.14484375 -3.91601562 19.9921875 C-4.60377243 21.99717343 -5.30091076 23.99893723 -6 26 C-6.66 26 -7.32 26 -8 26 C-8.33 26.66 -8.66 27.32 -9 28 C-8.29066846 22.13816295 -6.38628907 16.75167398 -4.5 11.1875 C-4.01853516 9.73827148 -4.01853516 9.73827148 -3.52734375 8.25976562 C-1.13358962 1.13358962 -1.13358962 1.13358962 0 0 Z " fill="#7DD99A" transform="translate(683,294)"/>
<path d="M0 0 C-5.00184424 2.17443098 -10.03144433 4.23769844 -15.125 6.1875 C-16.15947266 6.59645508 -16.15947266 6.59645508 -17.21484375 7.01367188 C-20.93131836 8.43133284 -24.01028462 9.34929415 -28 9 C-23.71063814 5.53080722 -19.15988667 4.0412178 -14 2.25 C-13.09765625 1.92128906 -12.1953125 1.59257812 -11.265625 1.25390625 C-10.39421875 0.94839844 -9.5228125 0.64289063 -8.625 0.328125 C-7.83351563 0.0487207 -7.04203125 -0.23068359 -6.2265625 -0.51855469 C-3.77177931 -1.04934772 -2.35338547 -0.80192416 0 0 Z " fill="#7DD99A" transform="translate(462,171)"/>
<path d="M0 0 C4.87773748 1.7762327 9.20668538 4.35703673 13.65234375 6.99023438 C17.66528424 9.3318513 21.69652295 11.24448954 26 13 C26 13.33 26 13.66 26 14 C19.62486191 13.57271192 15.12212593 11.27003315 9.625 8.125 C8.80644531 7.67769531 7.98789062 7.23039062 7.14453125 6.76953125 C1.12927296 3.38781888 1.12927296 3.38781888 0 0 Z " fill="#7DD99A" transform="translate(415,371)"/>
<path d="M0 0 C9.03467027 3.43829557 17.63424946 7.0953396 26 12 C22.50028494 13.17976601 22.02302426 13.00967899 18.3203125 11.453125 C16.91558866 10.73084734 15.5172914 9.99596163 14.125 9.25 C13.08279297 8.70859375 13.08279297 8.70859375 12.01953125 8.15625 C10.65420935 7.44659116 9.2911766 6.73250787 7.93066406 6.01367188 C5.30678717 4.63603697 2.6555583 3.3152922 0 2 C0 1.34 0 0.68 0 0 Z " fill="#7DD99A" transform="translate(544,176)"/>
<path d="M0 0 C0 0.66 0 1.32 0 2 C-2.39503687 3.12672175 -4.7909871 4.25142558 -7.1875 5.375 C-8.19780273 5.85066406 -8.19780273 5.85066406 -9.22851562 6.3359375 C-19.82028142 11.29598392 -19.82028142 11.29598392 -25 11 C-22.8115042 8.8115042 -21.11235849 8.04751986 -18.28125 6.8359375 C-16.88326172 6.23652344 -16.88326172 6.23652344 -15.45703125 5.625 C-14.48121094 5.2125 -13.50539063 4.8 -12.5 4.375 C-11.52417969 3.95476563 -10.54835938 3.53453125 -9.54296875 3.1015625 C-2.26235288 0 -2.26235288 0 0 0 Z " fill="#7DD99A" transform="translate(610,838)"/>
<path d="M0 0 C-1.42399563 4.27198689 -4.61775804 5.67427069 -8.25 8 C-8.91902344 8.43828125 -9.58804688 8.8765625 -10.27734375 9.328125 C-11.58284989 10.17965356 -12.89328852 11.02367673 -14.20898438 11.859375 C-15.75260571 12.84244464 -17.27677444 13.85593817 -18.796875 14.875 C-19.52390625 15.24625 -20.2509375 15.6175 -21 16 C-21.99 15.67 -22.98 15.34 -24 15 C-23.0821875 14.41992188 -22.164375 13.83984375 -21.21875 13.2421875 C-15.12092174 9.36666041 -9.09739107 5.52377675 -3.453125 0.99609375 C-2 0 -2 0 0 0 Z " fill="#7DD99A" transform="translate(647,815)"/>
<path d="M0 0 C-2.18604285 1.41895708 -4.37377014 2.83519792 -6.5625 4.25 C-7.17158203 4.64574219 -7.78066406 5.04148438 -8.40820312 5.44921875 C-12.53180938 8.1110175 -16.71958101 10.59811753 -21 13 C-18.96594945 8.28002397 -15.80602213 6.43921438 -11.625 3.6875 C-10.95210938 3.22021484 -10.27921875 2.75292969 -9.5859375 2.27148438 C-8.93109375 1.83513672 -8.27625 1.39878906 -7.6015625 0.94921875 C-7.00682129 0.55049561 -6.41208008 0.15177246 -5.79931641 -0.2590332 C-3.50227761 -1.20496438 -2.30048189 -0.80595975 0 0 Z " fill="#7DD99A" transform="translate(416,147)"/>
<path d="M0 0 C0 0.66 0 1.32 0 2 C-2.37047846 3.54453816 -4.73235742 4.97728162 -7.1875 6.375 C-10.93941476 8.52920943 -14.47771903 10.56148794 -17.80078125 13.3515625 C-18.52652344 13.89554688 -19.25226563 14.43953125 -20 15 C-20.99 14.67 -21.98 14.34 -23 14 C-4.97385621 0 -4.97385621 0 0 0 Z " fill="#7DD99A" transform="translate(426,184)"/>
<path d="M0 0 C4.37941723 0.43586617 6.73888392 3.36541372 9.625 6.375 C10.11484375 6.87 10.6046875 7.365 11.109375 7.875 C13.33964378 10.15401783 15.22587455 12.33881182 17 15 C16.67 15.99 16.34 16.98 16 18 C15.43152344 17.35933594 14.86304688 16.71867187 14.27734375 16.05859375 C10.04892752 11.32192048 5.78760533 6.68420015 1.21484375 2.27734375 C0 1 0 1 0 0 Z " fill="#7DD99A" transform="translate(546,156)"/>
<path d="M0 0 C3.78340784 3.40071831 6.22523683 7.24206215 8.8125 11.5625 C9.23208984 12.23474609 9.65167969 12.90699219 10.08398438 13.59960938 C11.14011541 15.35170815 12.0792794 17.17310743 13 19 C12.67 19.99 12.34 20.98 12 22 C10.36310379 19.65337941 8.74066035 17.29867856 7.125 14.9375 C6.66480469 14.28072266 6.20460938 13.62394531 5.73046875 12.94726562 C2.83964779 8.6948261 1.13617271 5.02136099 0 0 Z " fill="#7DD99A" transform="translate(390,257)"/>
<path d="M0 0 C0.33 0.99 0.66 1.98 1 3 C0.39671875 3.65226562 -0.2065625 4.30453125 -0.828125 4.9765625 C-5.99201546 10.51759829 -5.99201546 10.51759829 -10.4375 16.625 C-10.953125 17.40875 -11.46875 18.1925 -12 19 C-12.66 19 -13.32 19 -14 19 C-10.63226133 11.83561254 -5.17540762 5.91475157 0 0 Z " fill="#7DD99A" transform="translate(402,493)"/>
<path d="M0 0 C0.33 0.99 0.66 1.98 1 3 C-0.50312013 5.46180305 -2.02654574 7.70206099 -3.75 10 C-4.20632813 10.6290625 -4.66265625 11.258125 -5.1328125 11.90625 C-7.2678249 14.81875247 -9.39735815 17.48632118 -12 20 C-12.66 19.67 -13.32 19.34 -14 19 C-13.32453125 18.13117187 -12.6490625 17.26234375 -11.953125 16.3671875 C-11.05197828 15.20320632 -10.15094253 14.03913923 -9.25 12.875 C-8.8065625 12.30523438 -8.363125 11.73546875 -7.90625 11.1484375 C-5.10681841 7.52564368 -2.49653346 3.83812854 0 0 Z " fill="#7DD99A" transform="translate(703,753)"/>
<path d="M0 0 C0.99 0.33 1.98 0.66 3 1 C2.43410156 1.62648438 1.86820312 2.25296875 1.28515625 2.8984375 C0.55167969 3.71570313 -0.18179687 4.53296875 -0.9375 5.375 C-1.66839844 6.18710937 -2.39929688 6.99921875 -3.15234375 7.8359375 C-5.02989471 9.85924167 -5.02989471 9.85924167 -6 12 C-6.66 12 -7.32 12 -8 12 C-8.268125 12.61875 -8.53625 13.2375 -8.8125 13.875 C-10 16 -10 16 -13 18 C-11.59618624 13.74278218 -9.55933627 11.12306156 -6.5 7.875 C-4.08551892 5.29589521 -1.96265593 2.94398389 0 0 Z " fill="#7DD99A" transform="translate(392,432)"/>
<path d="M0 0 C0 0.66 0 1.32 0 2 C-2.55774456 3.17818551 -5.12034242 4.34265655 -7.6875 5.5 C-8.40873047 5.83386719 -9.12996094 6.16773438 -9.87304688 6.51171875 C-13.71460372 8.23077159 -16.69442688 9.47556626 -21 9 C-15.38874078 4.32395065 -7.3879987 0 0 0 Z " fill="#7DD99A" transform="translate(649,342)"/>
<path d="M0 0 C0.33 0.99 0.66 1.98 1 3 C-1.40730648 5.63371858 -3.82739042 8.25535748 -6.25 10.875 C-7.27287109 11.99455078 -7.27287109 11.99455078 -8.31640625 13.13671875 C-8.98027344 13.85214844 -9.64414062 14.56757812 -10.328125 15.3046875 C-11.23933105 16.2944458 -11.23933105 16.2944458 -12.16894531 17.30419922 C-14.01818015 19.01683724 -15.69931591 20.00066811 -18 21 C-13.51973031 15.69441747 -8.87845747 10.55905386 -4.171875 5.453125 C-1.9045614 3.00442955 -1.9045614 3.00442955 0 0 Z " fill="#7DD99A" transform="translate(699,709)"/>
<path d="M0 0 C0.33 0 0.66 0 1 0 C1.5064814 2.70726366 2.005351 5.41557124 2.5 8.125 C2.64308594 8.88554688 2.78617187 9.64609375 2.93359375 10.4296875 C3.70312456 14.68042914 4.16644376 18.65859197 4 23 C3.34 23 2.68 23 2 23 C0.04596958 15.27111181 -0.22428282 7.94957992 0 0 Z " fill="#7DD99A" transform="translate(309,676)"/>
<path d="M0 0 C0.99 0.33 1.98 0.66 3 1 C1.625 2.5 1.625 2.5 0 4 C-0.66 4 -1.32 4 -2 4 C-2.33 4.99 -2.66 5.98 -3 7 C-3.66 7 -4.32 7 -5 7 C-5.33 7.99 -5.66 8.98 -6 10 C-7.62890625 11.38671875 -7.62890625 11.38671875 -9.5625 12.6875 C-10.52349609 13.34298828 -10.52349609 13.34298828 -11.50390625 14.01171875 C-11.99761719 14.33785156 -12.49132812 14.66398438 -13 15 C-11.69386058 11.08158173 -10.16870152 8.67359191 -7 6 C-6.34 6 -5.68 6 -5 6 C-5 5.34 -5 4.68 -5 4 C-2.6875 1.8125 -2.6875 1.8125 0 0 Z " fill="#7DD99A" transform="translate(391,161)"/>
<path d="M0 0 C6.88831341 -0.62621031 12.58902255 1.64193933 19 4 C19 4.66 19 5.32 19 6 C12.31816637 4.9559635 6.2534035 3.5957524 0 1 C0 0.67 0 0.34 0 0 Z " fill="#7DD99A" transform="translate(663,504)"/>
<path d="M0 0 C0.66 0 1.32 0 2 0 C1.93941406 0.6084375 1.87882813 1.216875 1.81640625 1.84375 C1.01587372 10.21855187 0.49518882 18.60286195 0 27 C-0.33 27 -0.66 27 -1 27 C-1.02905924 23.2500163 -1.04681874 19.50006163 -1.0625 15.75 C-1.07087891 14.68652344 -1.07925781 13.62304688 -1.08789062 12.52734375 C-1.09111328 11.50253906 -1.09433594 10.47773438 -1.09765625 9.421875 C-1.10289307 8.47924805 -1.10812988 7.53662109 -1.11352539 6.56542969 C-1.00968082 4.21876563 -0.66706529 2.24355522 0 0 Z " fill="#7DD99A" transform="translate(525,454)"/>
<path d="M0 0 C0.33 0.66 0.66 1.32 1 2 C0.12154088 3.99544025 -0.85315927 5.94904212 -1.875 7.875 C-4.47069016 12.74149036 -4.47069016 12.74149036 -6 18 C-6.66 18 -7.32 18 -8 18 C-8.33 18.66 -8.66 19.32 -9 20 C-8.45914863 15.04970761 -6.91707516 11.52139502 -4.5 7.1875 C-3.8709375 6.04667969 -3.241875 4.90585937 -2.59375 3.73046875 C-1 1 -1 1 0 0 Z " fill="#7DD99A" transform="translate(340,509)"/>
<path d="M0 0 C0.66 0.33 1.32 0.66 2 1 C0.8803014 2.00593243 -0.2459412 3.0045849 -1.375 4 C-2.31472656 4.8353125 -2.31472656 4.8353125 -3.2734375 5.6875 C-5 7 -5 7 -7 7 C-7 7.66 -7 8.32 -7 9 C-9.31 10.32 -11.62 11.64 -14 13 C-12.48538606 9.17043634 -10.22111436 7.30792726 -7 4.8125 C-6.113125 4.11769531 -5.22625 3.42289062 -4.3125 2.70703125 C-2 1 -2 1 0 0 Z " fill="#7DD99A" transform="translate(442,387)"/>
<path d="M0 0 C4.8245905 4.25699162 8.05863995 9.28911194 11 15 C11 15.66 11 16.32 11 17 C10.34 17 9.68 17 9 17 C7.59765625 14.953125 7.59765625 14.953125 6.0625 12.25 C4.57792819 9.65294856 3.16432958 7.20797369 1.30859375 4.859375 C0 3 0 3 0 0 Z " fill="#7DD99A" transform="translate(708,586)"/>
<path d="M0 0 C4.18238834 0.54769371 6.59868545 2.89888889 9.75 5.5625 C11.22726562 6.80193359 11.22726562 6.80193359 12.734375 8.06640625 C13.48203125 8.70449219 14.2296875 9.34257813 15 10 C14.67 10.66 14.34 11.32 14 12 C12.03713202 10.56836693 10.07978093 9.13010149 8.125 7.6875 C7.56941406 7.28337891 7.01382812 6.87925781 6.44140625 6.46289062 C3.7195934 4.44612569 1.89965896 2.84948844 0 0 Z " fill="#7DD99A" transform="translate(393,756)"/>
<path d="M0 0 C6.71400539 0.70673741 14.42477872 2.78394968 19 8 C11.93463111 6.74646681 6.28543527 4.43796251 0 1 C0 0.67 0 0.34 0 0 Z " fill="#7DD99A" transform="translate(450,317)"/>
<path d="M0 0 C0.33 0 0.66 0 1 0 C1.20190089 6.35987804 0.6277833 11.85221129 -1 18 C-1.66 18 -2.32 18 -3 18 C-2.51679152 11.7945858 -1.66681876 6.00054754 0 0 Z " fill="#7DD99A" transform="translate(747,647)"/>
<path d="M0 0 C-2.92617435 1.9507829 -5.02044581 2.71513462 -8.375 3.625 C-9.77878906 4.01558594 -9.77878906 4.01558594 -11.2109375 4.4140625 C-13.90123635 4.97925133 -16.26144571 5.10954217 -19 5 C-13.6808996 0.12415796 -6.85779176 -0.28574132 0 0 Z " fill="#7DD99A" transform="translate(571,788)"/>
<path d="M0 0 C0.99 0.33 1.98 0.66 3 1 C-2.445 7.93 -2.445 7.93 -8 15 C-8.33 14.01 -8.66 13.02 -9 12 C-7.59166619 9.8037049 -6.18346343 7.83930111 -4.5625 5.8125 C-4.12873047 5.25369141 -3.69496094 4.69488281 -3.24804688 4.11914062 C-2.17453547 2.73891168 -1.0884306 1.36849461 0 0 Z " fill="#7DD99A" transform="translate(376,451)"/>
<path d="M0 0 C0 0.66 0 1.32 0 2 C-2.484375 3.98046875 -2.484375 3.98046875 -5.75 6.1875 C-6.81734375 6.92355469 -7.8846875 7.65960938 -8.984375 8.41796875 C-12 10 -12 10 -14.390625 9.73828125 C-14.92171875 9.49464844 -15.4528125 9.25101562 -16 9 C-13.71180854 7.49445366 -11.41978831 5.99542957 -9.125 4.5 C-8.47402344 4.07074219 -7.82304687 3.64148438 -7.15234375 3.19921875 C-2.2265625 0 -2.2265625 0 0 0 Z " fill="#7DD99A" transform="translate(497,415)"/>
<path d="M0 0 C0.33 0 0.66 0 1 0 C1.11381955 6.76594019 0.88021369 13.28837062 0 20 C-0.33 20 -0.66 20 -1 20 C-1.88701576 12.80798031 -2.26613747 6.93171463 0 0 Z " fill="#7DD99A" transform="translate(345,606)"/>
<path d="M0 0 C-5.32988805 3.71852655 -9.37643111 6.37848965 -16 6 C-13.10600531 3.65788337 -10.32844572 2.13137829 -6.875 0.75 C-6.00617187 0.39421875 -5.13734375 0.0384375 -4.2421875 -0.328125 C-2 -1 -2 -1 0 0 Z " fill="#7DD99A" transform="translate(667,335)"/>
<path d="M0 0 C-1.5625 2 -1.5625 2 -4 4 C-7.75 4.25 -7.75 4.25 -11 4 C-11 3.67 -11 3.34 -11 3 C-13.64 2.67 -16.28 2.34 -19 2 C-19 1.67 -19 1.34 -19 1 C-12.62694402 0.25492456 -6.41688675 -0.10349817 0 0 Z " fill="#7DD99A" transform="translate(519,328)"/>
<path d="M0 0 C-2.46875142 2.46875142 -3.90851681 2.54461856 -7.3125 3.125 C-8.25738281 3.29257812 -9.20226562 3.46015625 -10.17578125 3.6328125 C-12.82418807 3.97714202 -15.33350826 4.06799797 -18 4 C-12.23759526 0.15839684 -6.70842135 -0.23538321 0 0 Z " fill="#7DD99A" transform="translate(547,324)"/>
<path d="M0 0 C0.66 0 1.32 0 2 0 C3.38529821 5.45461169 4.2396943 10.36718401 4 16 C0.78235549 11.17353323 -0.36261136 5.80178176 0 0 Z " fill="#7DD99A" transform="translate(345,670)"/>
<path d="M0 0 C1.49828872 3.88235819 0.43110582 6.43449288 -0.9375 10.25 C-1.31777344 11.32765625 -1.69804687 12.4053125 -2.08984375 13.515625 C-2.39019531 14.33546875 -2.69054687 15.1553125 -3 16 C-3.33 16 -3.66 16 -4 16 C-4.5326514 9.741346 -2.81849506 5.54891215 0 0 Z " fill="#7DD99A" transform="translate(321,554)"/>
<path d="M0 0 C-1.24669004 3.74007011 -2.68513508 4.51247157 -5.875 6.75 C-7.20144531 7.70132812 -7.20144531 7.70132812 -8.5546875 8.671875 C-9.36164063 9.11015625 -10.16859375 9.5484375 -11 10 C-11.99 9.67 -12.98 9.34 -14 9 C-12.04594482 7.49412261 -10.08718716 5.99521356 -8.125 4.5 C-7.56941406 4.07074219 -7.01382812 3.64148438 -6.44140625 3.19921875 C-2.2265625 0 -2.2265625 0 0 0 Z " fill="#7DD99A" transform="translate(477,428)"/>
<path d="M0 0 C5.44208234 0.34013015 8.93668198 3.70296528 13 7 C12.67 7.99 12.34 8.98 12 10 C9.99708788 8.52464063 7.99763223 7.04497707 6 5.5625 C5.42765625 5.14162109 4.8553125 4.72074219 4.265625 4.28710938 C2.82546081 3.21555864 1.41048004 2.11033324 0 1 C0 0.67 0 0.34 0 0 Z " fill="#7DD99A" transform="translate(532,145)"/>
<path d="M0 0 C0 0.33 0 0.66 0 1 C-1.65 1 -3.3 1 -5 1 C-5 1.66 -5 2.32 -5 3 C-9.95 3 -14.9 3 -20 3 C-20 2.67 -20 2.34 -20 2 C-6.3667426 -0.29612756 -6.3667426 -0.29612756 0 0 Z " fill="#7DD99A" transform="translate(547,859)"/>
<path d="M0 0 C0 0.66 0 1.32 0 2 C-1.74122549 3.03572896 -3.49336595 4.0531252 -5.25 5.0625 C-6.71179688 5.91521484 -6.71179688 5.91521484 -8.203125 6.78515625 C-11 8 -11 8 -13.359375 7.68359375 C-13.90078125 7.45800781 -14.4421875 7.23242188 -15 7 C-12.87767021 5.82823482 -10.75242209 4.66245215 -8.625 3.5 C-7.72007812 2.99919922 -7.72007812 2.99919922 -6.796875 2.48828125 C-2.2265625 0 -2.2265625 0 0 0 Z " fill="#7DD99A" transform="translate(538,392)"/>
<path d="M0 0 C9.59453303 6.15034169 9.59453303 6.15034169 13 10 C7.77559896 9.67347493 3.61964725 6.6106655 0 3 C0 2.01 0 1.02 0 0 Z " fill="#7DD99A" transform="translate(399,359)"/>
<path d="M0 0 C-1 3 -1 3 -2.92578125 4.203125 C-3.71339844 4.54859375 -4.50101563 4.8940625 -5.3125 5.25 C-6.09238281 5.60578125 -6.87226562 5.9615625 -7.67578125 6.328125 C-10.24607227 7.0711335 -11.51383429 6.88750996 -14 6 C-12.04414675 4.99515796 -10.08523763 3.99626195 -8.125 3 C-6.48917969 2.1646875 -6.48917969 2.1646875 -4.8203125 1.3125 C-2 0 -2 0 0 0 Z " fill="#7DD99A" transform="translate(558,382)"/>
<path d="M0 0 C10.55808656 0.77904328 10.55808656 0.77904328 15 3 C15 3.33 15 3.66 15 4 C4.44191344 3.22095672 4.44191344 3.22095672 0 1 C0 0.67 0 0.34 0 0 Z " fill="#7DD99A" transform="translate(458,791)"/>
<path d="M0 0 C1 3 1 3 -0.14453125 5.48046875 C-0.97017578 6.82044922 -0.97017578 6.82044922 -1.8125 8.1875 C-2.35519531 9.08855469 -2.89789062 9.98960937 -3.45703125 10.91796875 C-3.96621094 11.60503906 -4.47539063 12.29210937 -5 13 C-5.66 13 -6.32 13 -7 13 C-5.35821735 8.22390502 -2.73453298 4.20617096 0 0 Z " fill="#7DD99A" transform="translate(713,737)"/>
<path d="M0 0 C2.26954631 3.40431947 2.36549949 5.16524202 2.625 9.1875 C2.69976562 10.27417969 2.77453125 11.36085938 2.8515625 12.48046875 C2.92503906 13.72763672 2.92503906 13.72763672 3 15 C2.34 15 1.68 15 1 15 C-0.32286246 10.03926578 -0.08893197 5.08888488 0 0 Z " fill="#7DD99A" transform="translate(348,270)"/>
<path d="M0 0 C0.33 0 0.66 0 1 0 C2.0748291 6.27467799 1.88341198 10.90660831 0 17 C-0.33 17 -0.66 17 -1 17 C-1.10477512 11.21408489 -0.99250545 5.70690634 0 0 Z " fill="#7DD99A" transform="translate(724,642)"/>
<path d="M0 0 C4.84590538 0.44053685 8.48141867 2.74505877 12 6 C12 6.66 12 7.32 12 8 C7.44328408 6.48109469 3.68276708 4.04597738 0 1 C0 0.67 0 0.34 0 0 Z " fill="#7DD99A" transform="translate(696,516)"/>
<path d="M0 0 C0 0.66 0 1.32 0 2 C-1.61992165 2.86375896 -3.24611861 3.71575854 -4.875 4.5625 C-6.23238281 5.27599609 -6.23238281 5.27599609 -7.6171875 6.00390625 C-8.40351562 6.33261719 -9.18984375 6.66132812 -10 7 C-10.66 6.67 -11.32 6.34 -12 6 C-9.1490916 2.47828963 -4.56486714 0 0 0 Z " fill="#7DD99A" transform="translate(610,838)"/>
<path d="M0 0 C1.81618856 1.11903546 3.62785526 2.24541284 5.4375 3.375 C6.44683594 4.00148438 7.45617187 4.62796875 8.49609375 5.2734375 C11 7 11 7 12 9 C6.81298543 8.68563548 3.4052641 5.69966733 0 2 C0 1.34 0 0.68 0 0 Z " fill="#7DD99A" transform="translate(386,819)"/>
<path d="M0 0 C0.66 0.66 1.32 1.32 2 2 C1.34 3.98 0.68 5.96 0 8 C-0.66 6.68 -1.32 5.36 -2 4 C-3.32 4.33 -4.64 4.66 -6 5 C-5.67 4.01 -5.34 3.02 -5 2 C-2.4375 0.8125 -2.4375 0.8125 0 0 Z " fill="#7DD99A" transform="translate(691,270)"/>
<path d="M0 0 C5.4185766 -0.22577402 9.77487721 0.53329887 15 2 C15 2.33 15 2.66 15 3 C9.5610835 3.21755666 5.12919186 3.10428384 0 1 C0 0.67 0 0.34 0 0 Z " fill="#7DD99A" transform="translate(508,167)"/>
<path d="M0 0 C0 3.74016583 -0.9341591 4.45276193 -3.375 7.1875 C-4.00148438 7.90292969 -4.62796875 8.61835938 -5.2734375 9.35546875 C-7 11 -7 11 -9 11 C-7.59155282 7.78475695 -5.89655214 5.67816132 -3.375 3.25 C-2.74335938 2.63640625 -2.11171875 2.0228125 -1.4609375 1.390625 C-0.73777344 0.70226562 -0.73777344 0.70226562 0 0 Z " fill="#7DD99A" transform="translate(413,481)"/>
<path d="M0 0 C0 0.66 0 1.32 0 2 C-1.43011973 2.86646667 -2.86940619 3.71781829 -4.3125 4.5625 C-5.51326172 5.27599609 -5.51326172 5.27599609 -6.73828125 6.00390625 C-9 7 -9 7 -12 6 C-10.37829621 4.99466333 -8.75252763 3.99588093 -7.125 3 C-5.76761719 2.1646875 -5.76761719 2.1646875 -4.3828125 1.3125 C-2 0 -2 0 0 0 Z " fill="#7DD99A" transform="translate(521,401)"/>
<path d="M0 0 C0.66 0 1.32 0 2 0 C2.69965443 1.26418246 3.38434763 2.53665402 4.0625 3.8125 C4.63677734 4.87404297 4.63677734 4.87404297 5.22265625 5.95703125 C6 8 6 8 5 11 C4.15841464 9.73461631 3.32700252 8.46246221 2.5 7.1875 C1.80390625 6.12595703 1.80390625 6.12595703 1.09375 5.04296875 C0 3 0 3 0 0 Z " fill="#7DD99A" transform="translate(534,452)"/>
<path d="M0 0 C0.66 0 1.32 0 2 0 C2.99 3.63 3.98 7.26 5 11 C4.34 11 3.68 11 3 11 C0 4.5 0 4.5 0 0 Z " fill="#7DD99A" transform="translate(385,243)"/>
<path d="M0 0 C0 3.41321235 -0.66867466 4.39472885 -2.5 7.1875 C-2.9640625 7.90292969 -3.428125 8.61835938 -3.90625 9.35546875 C-4.2671875 9.89816406 -4.628125 10.44085938 -5 11 C-5.61328125 9.19921875 -5.61328125 9.19921875 -6 7 C-2.82191781 1.4109589 -2.82191781 1.4109589 0 0 Z " fill="#7DD99A" transform="translate(370,185)"/>
<path d="M0 0 C2.3828125 0.0234375 2.3828125 0.0234375 5.125 0.375 C6.03507812 0.48585937 6.94515625 0.59671875 7.8828125 0.7109375 C8.93082031 0.85402344 8.93082031 0.85402344 10 1 C10 1.66 10 2.32 10 3 C6.04 2.67 2.08 2.34 -2 2 C-1.34 1.34 -0.68 0.68 0 0 Z " fill="#7DD99A" transform="translate(494,130)"/>
<path d="M0 0 C0.33 0.99 0.66 1.98 1 3 C-0.21484375 4.82421875 -0.21484375 4.82421875 -1.9375 6.6875 C-2.50339844 7.31011719 -3.06929688 7.93273437 -3.65234375 8.57421875 C-4.09707031 9.04472656 -4.54179687 9.51523437 -5 10 C-5.33 9.01 -5.66 8.02 -6 7 C-4.78515625 5.17578125 -4.78515625 5.17578125 -3.0625 3.3125 C-2.49660156 2.68988281 -1.93070312 2.06726563 -1.34765625 1.42578125 C-0.90292969 0.95527344 -0.45820313 0.48476563 0 0 Z " fill="#7DD99A" transform="translate(402,493)"/>
<path d="M0 0 C0 0.66 0 1.32 0 2 C-6.96428571 5.34821429 -6.96428571 5.34821429 -11 4 C-9.73308493 3.32591692 -8.46129251 2.66099503 -7.1875 2 C-6.47980469 1.62875 -5.77210938 1.2575 -5.04296875 0.875 C-3 0 -3 0 0 0 Z " fill="#7DD99A" transform="translate(585,370)"/>
<path d="M0 0 C0 0.66 0 1.32 0 2 C-6.96428571 5.34821429 -6.96428571 5.34821429 -11 4 C-9.5437455 3.32880451 -8.08492133 2.66318193 -6.625 2 C-5.81289063 1.62875 -5.00078125 1.2575 -4.1640625 0.875 C-2 0 -2 0 0 0 Z " fill="#7DD99A" transform="translate(614,357)"/>
<path d="M0 0 C-0.33 0.66 -0.66 1.32 -1 2 C-3.28515625 2.6328125 -3.28515625 2.6328125 -6.0625 3.125 C-6.98160156 3.29257812 -7.90070312 3.46015625 -8.84765625 3.6328125 C-9.91306641 3.81457031 -9.91306641 3.81457031 -11 4 C-10.34 3.67 -9.68 3.34 -9 3 C-9 2.34 -9 1.68 -9 1 C-5.8035914 -0.06546953 -3.34252724 -0.07427838 0 0 Z " fill="#7DD99A" transform="translate(584,313)"/>
<path d="M0 0 C2.61724095 2.36797991 4.32861729 4.89600354 6 8 C6 8.66 6 9.32 6 10 C5.34 10 4.68 10 4 10 C0 3.375 0 3.375 0 0 Z " fill="#7DD99A" transform="translate(335,759)"/>
<path d="M0 0 C7.50769231 0.61538462 7.50769231 0.61538462 10 2.5625 C10.33 3.036875 10.66 3.51125 11 4 C6.44262737 3.56179109 3.42346555 3.14958831 0 0 Z " fill="#7DD99A" transform="translate(567,483)"/>
<path d="M0 0 C0.33 0 0.66 0 1 0 C0.125 7.75 0.125 7.75 -1 10 C-1.99 9.67 -2.98 9.34 -4 9 C-2.68 6.03 -1.36 3.06 0 0 Z " fill="#7DD99A" transform="translate(673,323)"/>
<path d="M0 0 C3.95820859 0.56545837 6.6659053 1.80902348 10 4 C8.375 4.6875 8.375 4.6875 6 5 C2.75 3.5625 2.75 3.5625 0 2 C0 1.34 0 0.68 0 0 Z " fill="#7DD99A" transform="translate(560,184)"/>
<path d="M0 0 C-1 3 -1 3 -2.8125 4.25 C-5.33943414 5.11637742 -6.52221994 4.88492145 -9 4 C-2.25 0 -2.25 0 0 0 Z " fill="#7DD99A" transform="translate(621,832)"/>
<path d="M0 0 C3.35595828 0.59927826 5.37801226 1.84622436 8 4 C7.67 4.99 7.34 5.98 7 7 C5.83040013 6.02433888 4.66438823 5.044375 3.5 4.0625 C2.8503125 3.51722656 2.200625 2.97195313 1.53125 2.41015625 C1.0259375 1.94480469 0.520625 1.47945312 0 1 C0 0.67 0 0.34 0 0 Z " fill="#7DD99A" transform="translate(378,814)"/>
<path d="M0 0 C0.33 0 0.66 0 1 0 C1.125 6.625 1.125 6.625 0 10 C-0.66 10 -1.32 10 -2 10 C-1.125 2.25 -1.125 2.25 0 0 Z " fill="#7DD99A" transform="translate(743,666)"/>
<path d="M0 0 C0.66 0.33 1.32 0.66 2 1 C-2.625 5.875 -2.625 5.875 -6 7 C-4.60667426 3.63279613 -3.0210714 2.0140476 0 0 Z " fill="#7DD99A" transform="translate(434,393)"/>
<path d="M0 0 C3.9492568 0.55105909 7.34920174 1.38935371 11 3 C11 3.33 11 3.66 11 4 C8.03 3.67 5.06 3.34 2 3 C2 2.34 2 1.68 2 1 C1.34 0.67 0.68 0.34 0 0 Z " fill="#7DD99A" transform="translate(531,172)"/>
<path d="M0 0 C-2.06756277 2.7972908 -3.14440371 3.02692273 -6.6875 3.6875 C-7.780625 3.790625 -8.87375 3.89375 -10 4 C-9.34 3.67 -8.68 3.34 -8 3 C-8 2.34 -8 1.68 -8 1 C-5.07175348 0.02391783 -3.04386724 -0.08226668 0 0 Z " fill="#7DD99A" transform="translate(437,137)"/>
<path d="M0 0 C2.18975773 3.28463659 2.99806563 6.20696275 4 10 C3.01 9.67 2.02 9.34 1 9 C0.67 6.03 0.34 3.06 0 0 Z " fill="#7DD99A" transform="translate(317,715)"/>
<path d="M0 0 C2.64752004 2.57784846 4.94432065 4.91648098 7 8 C4.24542282 7.62005832 3.17979426 7.1926367 1.25 5.125 C0 3 0 3 0 0 Z " fill="#7DD99A" transform="translate(538,514)"/>
<path d="M0 0 C0 0.66 0 1.32 0 2 C-4.455 2.495 -4.455 2.495 -9 3 C-6.01800145 0.01800145 -4.21244839 0 0 0 Z " fill="#7DD99A" transform="translate(579,851)"/>
<path d="M0 0 C2.97 0.33 5.94 0.66 9 1 C9 1.66 9 2.32 9 3 C2.25 2.25 2.25 2.25 0 0 Z " fill="#7DD99A" transform="translate(448,788)"/>
<path d="M0 0 C0.99 0.33 1.98 0.66 3 1 C1.92598892 3.91517292 1.22189824 5.77810176 -1 8 C-0.67 5.36 -0.34 2.72 0 0 Z " fill="#7DD99A" transform="translate(715,731)"/>
<path d="M0 0 C1 3 1 3 -0.4375 6.1875 C-1.2109375 7.5796875 -1.2109375 7.5796875 -2 9 C-2.33 9 -2.66 9 -3 9 C-2.25 2.25 -2.25 2.25 0 0 Z " fill="#7DD99A" transform="translate(330,530)"/>
<path d="M0 0 C2.96175123 0.61277612 4.38058783 1.25372522 7 3 C6.67 3.99 6.34 4.98 6 6 C3.97945196 4.35830472 1.97956942 2.69088222 0 1 C0 0.67 0 0.34 0 0 Z " fill="#7DD99A" transform="translate(709,525)"/>
<path d="M0 0 C6.625 -0.25 6.625 -0.25 10 2 C6.18510326 3.46726798 3.70988378 2.43336419 0 1 C0 0.67 0 0.34 0 0 Z " fill="#7DD99A" transform="translate(663,504)"/>
<path d="M0 0 C-1.13474948 3.40424844 -1.96811304 4.21653709 -5 6 C-5.99 5.67 -6.98 5.34 -8 5 C-2.25 0 -2.25 0 0 0 Z " fill="#7DD99A" transform="translate(453,446)"/>
<path d="M0 0 C-1.13474948 3.40424844 -1.96811304 4.21653709 -5 6 C-5.99 5.67 -6.98 5.34 -8 5 C-2.25 0 -2.25 0 0 0 Z " fill="#7DD99A" transform="translate(462,439)"/>
<path d="M0 0 C4.75 0.75 4.75 0.75 7 3 C6.67 3.99 6.34 4.98 6 6 C3.97945196 4.35830472 1.97956942 2.69088222 0 1 C0 0.67 0 0.34 0 0 Z " fill="#7DD99A" transform="translate(392,355)"/>
<path d="M0 0 C1.65 0 3.3 0 5 0 C5 0.33 5 0.66 5 1 C3.35 1 1.7 1 0 1 C0 0.67 0 0.34 0 0 Z " fill="#7DD99A" transform="translate(473,862)"/>
<path d="M0 0 C0.99 0.495 0.99 0.495 2 1 C1.01 1.495 1.01 1.495 0 2 C0 1.34 0 0.68 0 0 Z " fill="#7DD99A" transform="translate(603,550)"/>
<path d="M0 0 C3 1 3 1 3 1 Z " fill="#7DD99A" transform="translate(597,488)"/>
<path d="" fill="#7DD99A" transform="translate(0,0)"/>
<path d="M0 0 C2 1 2 1 2 1 Z " fill="#7DD99A" transform="translate(536,792)"/>
<path d="M0 0 C2 1 2 1 2 1 Z " fill="#7DD99A" transform="translate(477,792)"/>
<path d="M0 0 C2 1 2 1 2 1 Z " fill="#7DD99A" transform="translate(445,784)"/>
<path d="M0 0 C2 1 2 1 2 1 Z " fill="#7DD99A" transform="translate(336,768)"/>
<path d="" fill="#7DD99A" transform="translate(0,0)"/>
<path d="" fill="#7DD99A" transform="translate(0,0)"/>
<path d="" fill="#7DD99A" transform="translate(0,0)"/>
<path d="" fill="#7DD99A" transform="translate(0,0)"/>
<path d="M0 0 C2 1 2 1 2 1 Z " fill="#7DD99A" transform="translate(667,564)"/>
<path d="M0 0 C2 1 2 1 2 1 Z " fill="#7DD99A" transform="translate(643,558)"/>
<path d="" fill="#7DD99A" transform="translate(0,0)"/>
<path d="M0 0 C2 1 2 1 2 1 Z " fill="#7DD99A" transform="translate(570,541)"/>
<path d="" fill="#7DD99A" transform="translate(0,0)"/>
<path d="M0 0 C2 1 2 1 2 1 Z " fill="#7DD99A" transform="translate(533,440)"/>
<path d="M0 0 C2 1 2 1 2 1 Z " fill="#7DD99A" transform="translate(529,324)"/>
<path d="M0 0 C2 1 2 1 2 1 Z " fill="#7DD99A" transform="translate(549,320)"/>
<path d="M0 0 C2 1 2 1 2 1 Z " fill="#7DD99A" transform="translate(600,304)"/>
<path d="M0 0 C2 1 2 1 2 1 Z " fill="#7DD99A" transform="translate(664,280)"/>
<path d="M0 0 C2 1 2 1 2 1 Z " fill="#7DD99A" transform="translate(435,182)"/>
<path d="" fill="#7DD99A" transform="translate(0,0)"/>
<path d="" fill="#7DD99A" transform="translate(0,0)"/>
<path d="" fill="#7DD99A" transform="translate(0,0)"/>
<path d="" fill="#7DD99A" transform="translate(0,0)"/>
<path d="" fill="#7DD99A" transform="translate(0,0)"/>
<path d="" fill="#7DD99A" transform="translate(0,0)"/>
<path d="" fill="#7DD99A" transform="translate(0,0)"/>
<path d="" fill="#7DD99A" transform="translate(0,0)"/>
<path d="" fill="#7DD99A" transform="translate(0,0)"/>
<path d="" fill="#7DD99A" transform="translate(0,0)"/>
<path d="" fill="#7DD99A" transform="translate(0,0)"/>
<path d="" fill="#7DD99A" transform="translate(0,0)"/>
<path d="" fill="#7DD99A" transform="translate(0,0)"/>
<path d="" fill="#7DD99A" transform="translate(0,0)"/>
<path d="" fill="#7DD99A" transform="translate(0,0)"/>
<path d="" fill="#7DD99A" transform="translate(0,0)"/>
<path d="" fill="#7DD99A" transform="translate(0,0)"/>
<path d="" fill="#7DD99A" transform="translate(0,0)"/>
<path d="" fill="#7DD99A" transform="translate(0,0)"/>
<path d="" fill="#7DD99A" transform="translate(0,0)"/>
<path d="" fill="#7DD99A" transform="translate(0,0)"/>
<path d="" fill="#7DD99A" transform="translate(0,0)"/>
<path d="" fill="#7DD99A" transform="translate(0,0)"/>
<path d="" fill="#7DD99A" transform="translate(0,0)"/>
<path d="" fill="#7DD99A" transform="translate(0,0)"/>
<path d="" fill="#7DD99A" transform="translate(0,0)"/>
<path d="" fill="#7DD99A" transform="translate(0,0)"/>
<path d="" fill="#7DD99A" transform="translate(0,0)"/>
<path d="" fill="#7DD99A" transform="translate(0,0)"/>
<path d="" fill="#7DD99A" transform="translate(0,0)"/>
<path d="" fill="#7DD99A" transform="translate(0,0)"/>
<path d="" fill="#7DD99A" transform="translate(0,0)"/>
<path d="" fill="#7DD99A" transform="translate(0,0)"/>
<path d="" fill="#7DD99A" transform="translate(0,0)"/>
<path d="" fill="#7DD99A" transform="translate(0,0)"/>
<path d="" fill="#7DD99A" transform="translate(0,0)"/>
<path d="" fill="#7DD99A" transform="translate(0,0)"/>
<path d="" fill="#7DD99A" transform="translate(0,0)"/>
<path d="" fill="#7DD99A" transform="translate(0,0)"/>
<path d="" fill="#7DD99A" transform="translate(0,0)"/>
<path d="" fill="#7DD99A" transform="translate(0,0)"/>
<path d="" fill="#7DD99A" transform="translate(0,0)"/>
<path d="" fill="#7DD99A" transform="translate(0,0)"/>
<path d="" fill="#7DD99A" transform="translate(0,0)"/>
<path d="" fill="#7DD99A" transform="translate(0,0)"/>
<path d="" fill="#7DD99A" transform="translate(0,0)"/>
<path d="" fill="#7DD99A" transform="translate(0,0)"/>
<path d="" fill="#7DD99A" transform="translate(0,0)"/>
<path d="" fill="#7DD99A" transform="translate(0,0)"/>
<path d="" fill="#7DD99A" transform="translate(0,0)"/>
<path d="" fill="#7DD99A" transform="translate(0,0)"/>
<path d="" fill="#7DD99A" transform="translate(0,0)"/>
<path d="" fill="#7DD99A" transform="translate(0,0)"/>
<path d="" fill="#7DD99A" transform="translate(0,0)"/>
<path d="" fill="#7DD99A" transform="translate(0,0)"/>
<path d="" fill="#7DD99A" transform="translate(0,0)"/>
<path d="" fill="#7DD99A" transform="translate(0,0)"/>
<path d="" fill="#7DD99A" transform="translate(0,0)"/>
<path d="" fill="#7DD99A" transform="translate(0,0)"/>
<path d="" fill="#7DD99A" transform="translate(0,0)"/>
<path d="" fill="#7DD99A" transform="translate(0,0)"/>
<path d="" fill="#7DD99A" transform="translate(0,0)"/>
<path d="" fill="#7DD99A" transform="translate(0,0)"/>
<path d="" fill="#7DD99A" transform="translate(0,0)"/>
<path d="" fill="#7DD99A" transform="translate(0,0)"/>
<path d="" fill="#7DD99A" transform="translate(0,0)"/>
<path d="" fill="#7DD99A" transform="translate(0,0)"/>
<path d="" fill="#7DD99A" transform="translate(0,0)"/>
<path d="" fill="#7DD99A" transform="translate(0,0)"/>
<path d="" fill="#7DD99A" transform="translate(0,0)"/>
<path d="" fill="#7DD99A" transform="translate(0,0)"/>
<path d="" fill="#7DD99A" transform="translate(0,0)"/>
<path d="" fill="#7DD99A" transform="translate(0,0)"/>
<path d="" fill="#7DD99A" transform="translate(0,0)"/>
<path d="" fill="#7DD99A" transform="translate(0,0)"/>
<path d="" fill="#7DD99A" transform="translate(0,0)"/>
<path d="" fill="#7DD99A" transform="translate(0,0)"/>
<path d="" fill="#7DD99A" transform="translate(0,0)"/>
<path d="" fill="#7DD99A" transform="translate(0,0)"/>
<path d="" fill="#7DD99A" transform="translate(0,0)"/>
<path d="" fill="#7DD99A" transform="translate(0,0)"/>
<path d="" fill="#7DD99A" transform="translate(0,0)"/>
<path d="" fill="#7DD99A" transform="translate(0,0)"/>
<path d="" fill="#7DD99A" transform="translate(0,0)"/>
<path d="" fill="#7DD99A" transform="translate(0,0)"/>
<path d="" fill="#7DD99A" transform="translate(0,0)"/>
<path d="" fill="#7DD99A" transform="translate(0,0)"/>
<path d="" fill="#7DD99A" transform="translate(0,0)"/>
<path d="" fill="#7DD99A" transform="translate(0,0)"/>
<path d="" fill="#7DD99A" transform="translate(0,0)"/>
<path d="" fill="#7DD99A" transform="translate(0,0)"/>
<path d="" fill="#7DD99A" transform="translate(0,0)"/>
<path d="" fill="#7DD99A" transform="translate(0,0)"/>
<path d="" fill="#7DD99A" transform="translate(0,0)"/>
<path d="" fill="#7DD99A" transform="translate(0,0)"/>
<path d="" fill="#7DD99A" transform="translate(0,0)"/>
<path d="" fill="#7DD99A" transform="translate(0,0)"/>
<path d="" fill="#7DD99A" transform="translate(0,0)"/>
<path d="" fill="#7DD99A" transform="translate(0,0)"/>
<path d="" fill="#7DD99A" transform="translate(0,0)"/>
<path d="" fill="#7DD99A" transform="translate(0,0)"/>
<path d="" fill="#7DD99A" transform="translate(0,0)"/>
<path d="" fill="#7DD99A" transform="translate(0,0)"/>
<path d="" fill="#7DD99A" transform="translate(0,0)"/>
<path d="" fill="#7DD99A" transform="translate(0,0)"/>
<path d="" fill="#7DD99A" transform="translate(0,0)"/>
<path d="" fill="#7DD99A" transform="translate(0,0)"/>
<path d="" fill="#7DD99A" transform="translate(0,0)"/>
<path d="" fill="#7DD99A" transform="translate(0,0)"/>
<path d="" fill="#7DD99A" transform="translate(0,0)"/>
<path d="" fill="#7DD99A" transform="translate(0,0)"/>
<path d="" fill="#7DD99A" transform="translate(0,0)"/>
<path d="" fill="#7DD99A" transform="translate(0,0)"/>
<path d="" fill="#7DD99A" transform="translate(0,0)"/>
<path d="" fill="#7DD99A" transform="translate(0,0)"/>
<path d="" fill="#7DD99A" transform="translate(0,0)"/>
<path d="" fill="#7DD99A" transform="translate(0,0)"/>
<path d="" fill="#7DD99A" transform="translate(0,0)"/>
<path d="" fill="#7DD99A" transform="translate(0,0)"/>
<path d="" fill="#7DD99A" transform="translate(0,0)"/>
<path d="" fill="#7DD99A" transform="translate(0,0)"/>
<path d="" fill="#7DD99A" transform="translate(0,0)"/>
<path d="" fill="#7DD99A" transform="translate(0,0)"/>
<path d="" fill="#7DD99A" transform="translate(0,0)"/>
<path d="" fill="#7DD99A" transform="translate(0,0)"/>
<path d="" fill="#7DD99A" transform="translate(0,0)"/>
<path d="" fill="#7DD99A" transform="translate(0,0)"/>
<path d="" fill="#7DD99A" transform="translate(0,0)"/>
<path d="" fill="#7DD99A" transform="translate(0,0)"/>
<path d="" fill="#7DD99A" transform="translate(0,0)"/>
<path d="" fill="#7DD99A" transform="translate(0,0)"/>
<path d="" fill="#7DD99A" transform="translate(0,0)"/>
<path d="" fill="#7DD99A" transform="translate(0,0)"/>
<path d="" fill="#7DD99A" transform="translate(0,0)"/>
<path d="" fill="#7DD99A" transform="translate(0,0)"/>
<path d="" fill="#7DD99A" transform="translate(0,0)"/>
<path d="" fill="#7DD99A" transform="translate(0,0)"/>
<path d="" fill="#7DD99A" transform="translate(0,0)"/>
<path d="" fill="#7DD99A" transform="translate(0,0)"/>
<path d="" fill="#7DD99A" transform="translate(0,0)"/>
<path d="" fill="#7DD99A" transform="translate(0,0)"/>
<path d="" fill="#7DD99A" transform="translate(0,0)"/>
<path d="" fill="#7DD99A" transform="translate(0,0)"/>
<path d="" fill="#7DD99A" transform="translate(0,0)"/>
<path d="" fill="#7DD99A" transform="translate(0,0)"/>
<path d="" fill="#7DD99A" transform="translate(0,0)"/>
<path d="" fill="#7DD99A" transform="translate(0,0)"/>
<path d="" fill="#7DD99A" transform="translate(0,0)"/>
<path d="" fill="#7DD99A" transform="translate(0,0)"/>
<path d="" fill="#7DD99A" transform="translate(0,0)"/>
<path d="" fill="#7DD99A" transform="translate(0,0)"/>
</svg>
