<?xml version="1.0" encoding="UTF-8"?>
<svg version="1.1" xmlns="http://www.w3.org/2000/svg" width="157" height="166">
<rect width="157" height="166" rx="14" fill="#101710"/>
<path d="M0 0 C51.81 0 103.62 0 157 0 C157 54.78 157 109.56 157 166 C105.19 166 53.38 166 0 166 C0 111.22 0 56.44 0 0 Z M11 20 C7.03164532 26.07862514 6.42152092 31.36744635 6.48242188 38.51171875 C6.4754126 39.5339151 6.46840332 40.55611145 6.46118164 41.60928345 C6.44365882 44.96896999 6.45520464 48.32780574 6.46875 51.6875 C6.46605346 54.0334489 6.46216969 56.37939671 6.45715332 58.7253418 C6.45126598 63.63438593 6.45979695 68.5431383 6.47851562 73.45214844 C6.50130425 79.73346686 6.48817713 86.01410154 6.46422577 92.2953949 C6.44974739 97.13738117 6.45438324 101.97920629 6.46473694 106.82119751 C6.46739856 109.13677044 6.46415441 111.45235817 6.45481873 113.76791382 C6.44461994 117.00842859 6.46020198 120.24784773 6.48242188 123.48828125 C6.47432495 124.43812897 6.46622803 125.38797668 6.45788574 126.36660767 C6.55266972 133.85682685 8.5144282 138.96207891 13.25 144.75 C20.0227598 150.29134893 25.86887189 151.59125359 34.51171875 151.51757812 C35.5339151 151.5245874 36.55611145 151.53159668 37.60928345 151.53881836 C40.96896999 151.55634118 44.32780574 151.54479536 47.6875 151.53125 C50.0334489 151.53394654 52.37939671 151.53783031 54.7253418 151.54284668 C59.63438593 151.54873402 64.5431383 151.54020305 69.45214844 151.52148438 C75.73346686 151.49869575 82.01410154 151.51182287 88.2953949 151.53577423 C93.13738117 151.55025261 97.97920629 151.54561676 102.82119751 151.53526306 C105.13677044 151.53260144 107.45235817 151.53584559 109.76791382 151.54518127 C113.00842859 151.55538006 116.24784773 151.53979802 119.48828125 151.51757812 C120.43812897 151.52567505 121.38797668 151.53377197 122.36660767 151.54211426 C129.85682685 151.44733028 134.96207891 149.4855718 140.75 144.75 C146.29134893 137.9772402 147.59125359 132.13112811 147.51757812 123.48828125 C147.5245874 122.4660849 147.53159668 121.44388855 147.53881836 120.39071655 C147.55634118 117.03103001 147.54479536 113.67219426 147.53125 110.3125 C147.53394654 107.9665511 147.53783031 105.62060329 147.54284668 103.2746582 C147.54873402 98.36561407 147.54020305 93.4568617 147.52148438 88.54785156 C147.49869575 82.26653314 147.51182287 75.98589846 147.53577423 69.7046051 C147.55025261 64.86261883 147.54561676 60.02079371 147.53526306 55.17880249 C147.53260144 52.86322956 147.53584559 50.54764183 147.54518127 48.23208618 C147.55538006 44.99157141 147.53979802 41.75215227 147.51757812 38.51171875 C147.52567505 37.56187103 147.53377197 36.61202332 147.54211426 35.63339233 C147.44733028 28.14317315 145.4855718 23.03792109 140.75 17.25 C133.9772402 11.70865107 128.13112811 10.40874641 119.48828125 10.48242188 C118.4660849 10.4754126 117.44388855 10.46840332 116.39071655 10.46118164 C113.03103001 10.44365882 109.67219426 10.45520464 106.3125 10.46875 C103.9665511 10.46605346 101.62060329 10.46216969 99.2746582 10.45715332 C94.36561407 10.45126598 89.4568617 10.45979695 84.54785156 10.47851562 C78.26653314 10.50130425 71.98589846 10.48817713 65.7046051 10.46422577 C60.86261883 10.44974739 56.02079371 10.45438324 51.17880249 10.46473694 C48.86322956 10.46739856 46.54764183 10.46415441 44.23208618 10.45481873 C40.99157141 10.44461994 37.75215227 10.46020198 34.51171875 10.48242188 C33.56187103 10.47432495 32.61202332 10.46622803 31.63339233 10.45788574 C23.02043875 10.56687721 16.5506326 13.21589349 11 20 Z " fill="transparent" transform="translate(0,0)"/>
<path d="M0 0 C2.3828125 -0.29296875 2.3828125 -0.29296875 5.125 -0.1875 C6.03507812 -0.16042969 6.94515625 -0.13335937 7.8828125 -0.10546875 C8.58148438 -0.07066406 9.28015625 -0.03585938 10 0 C10 0.66 10 1.32 10 2 C10.99 2.33 11.98 2.66 13 3 C16.57038439 8.42169482 16.75626592 13.21867038 15.5 19.5 C15.335 19.995 15.17 20.49 15 21 C15.57073242 20.83701416 16.14146484 20.67402832 16.72949219 20.50610352 C19.01653267 19.99631481 20.98964456 19.88564032 23.328125 19.90234375 C24.52695313 19.90717773 24.52695313 19.90717773 25.75 19.91210938 C26.575 19.92048828 27.4 19.92886719 28.25 19.9375 C29.09046875 19.94201172 29.9309375 19.94652344 30.796875 19.95117188 C32.86461401 19.96292039 34.93231624 19.98085478 37 20 C38.57666352 17.18409122 39.00066603 16.03529954 38.9375 12.6875 C39.01406891 8.16993434 39.83450973 5.94428586 42 2 C45.06697102 -0.06888347 47.1438708 -0.15531312 50.75 0.375 C51.94882813 0.54128906 51.94882813 0.54128906 53.171875 0.7109375 C53.77515625 0.80632813 54.3784375 0.90171875 55 1 C55.98466253 3.95398758 56.12127836 5.85249022 56.11352539 8.93041992 C56.11341209 10.43163643 56.11341209 10.43163643 56.11329651 11.96318054 C56.10813522 13.04138565 56.10297394 14.11959076 56.09765625 15.23046875 C56.0962413 16.33602615 56.09482635 17.44158356 56.09336853 18.5806427 C56.08776514 22.11628917 56.07521204 25.65187262 56.0625 29.1875 C56.05748544 31.58268138 56.05292246 33.97786375 56.04882812 36.37304688 C56.03779461 42.24871947 56.02105316 48.12435523 56 54 C55.34 54 54.68 54 54 54 C54 54.66 54 55.32 54 56 C50.7 56 47.4 56 44 56 C44 49.07 44 42.14 44 35 C32.78 35 21.56 35 10 35 C10.03954176 41.82108473 10.03954176 41.82108473 10.09008789 48.64208984 C10.09258545 49.48980957 10.09508301 50.3375293 10.09765625 51.2109375 C10.10289307 52.08024902 10.10812988 52.94956055 10.11352539 53.84521484 C10 56 10 56 9 58 C7.78763672 57.96519531 7.78763672 57.96519531 6.55078125 57.9296875 C5.48214844 57.91164062 4.41351563 57.89359375 3.3125 57.875 C1.72888672 57.84019531 1.72888672 57.84019531 0.11328125 57.8046875 C-3.04286768 58.00268932 -5.11746466 58.78140696 -8 60 C-11.22457063 59.67754294 -13.92734147 59.02421951 -17 58 C-19.88774951 52.75926941 -20.31233884 48.93443789 -20 43 C-20.5053125 43.16886719 -21.010625 43.33773437 -21.53125 43.51171875 C-26.10656633 44.41664682 -30.82897001 43.84089989 -35.46875 43.64453125 C-39.02199057 43.70785773 -39.02199057 43.70785773 -41.4765625 45.76171875 C-43.18610019 48.27342412 -43.32134694 49.07013288 -42.875 52 C-42.765625 54.09375 -42.765625 54.09375 -43 56 C-46.14588584 58.99608175 -48.0421524 59.92904833 -52.375 60.25 C-53.24125 60.1675 -54.1075 60.085 -55 60 C-55 59.34 -55 58.68 -55 58 C-55.62438965 57.8973584 -56.2487793 57.7947168 -56.89208984 57.68896484 C-59 57 -59 57 -60.7265625 53.9765625 C-62.77258737 47.74965098 -62.44641523 41.11004267 -62.39111328 34.62695312 C-62.37498631 32.37308691 -62.39103953 30.12100021 -62.41015625 27.8671875 C-62.40817447 26.41926692 -62.40433214 24.97134744 -62.3984375 23.5234375 C-62.39505371 22.22325684 -62.39166992 20.92307617 -62.38818359 19.58349609 C-61.97095111 15.73183675 -60.93492258 13.32642656 -59 10 C-58.5771875 9.24074219 -58.154375 8.48148438 -57.71875 7.69921875 C-57.3165625 7.03535156 -56.914375 6.37148438 -56.5 5.6875 C-56.0978125 5.01074219 -55.695625 4.33398438 -55.28125 3.63671875 C-54 2 -54 2 -51 1 C-48.1208432 0.87872592 -45.26668625 0.81182363 -42.38671875 0.796875 C-41.11596245 0.78832489 -41.11596245 0.78832489 -39.8195343 0.77960205 C-38.02659349 0.77015798 -36.23363537 0.76362042 -34.44067383 0.75976562 C-31.70818492 0.75007337 -28.97645262 0.71905038 -26.24414062 0.6875 C-24.50000445 0.68096822 -22.75586292 0.67571843 -21.01171875 0.671875 C-20.19902023 0.6595282 -19.38632172 0.6471814 -18.54899597 0.63446045 C-13.55960306 0.65388978 -10.42456115 1.47359528 -6 4 C-3.76033623 4.0248753 -3.76033623 4.0248753 -2 3 C-1.34 2.01 -0.68 1.02 0 0 Z " fill="#354B36" transform="translate(80,48)"/>
<path d="M0 0 C1.83704312 -0.01653825 3.67402246 -0.04380029 5.51074219 -0.08203125 C8.16391264 -0.13695737 10.81557491 -0.15869864 13.46923828 -0.17333984 C14.69299164 -0.2073439 14.69299164 -0.2073439 15.94146729 -0.24203491 C20.1088476 -0.22668774 22.72005803 0.08879864 26.01904297 2.7578125 C29.16176995 6.02037362 29.64184921 7.33663671 29.62963867 11.70800781 C29.62956314 12.60879059 29.62948761 13.50957336 29.62940979 14.43765259 C29.6242485 15.41165009 29.61908722 16.38564758 29.61376953 17.38916016 C29.61235458 18.38515228 29.61093964 19.38114441 29.60948181 20.40731812 C29.60387264 23.59660818 29.59131858 26.78582871 29.57861328 29.97509766 C29.57359946 32.13395081 29.56903635 34.29280506 29.56494141 36.45166016 C29.55390023 41.75116622 29.53662942 47.05062014 29.51611328 52.35009766 C26.21611328 52.35009766 22.91611328 52.35009766 19.51611328 52.35009766 C19.51611328 46.74009766 19.51611328 41.13009766 19.51611328 35.35009766 C8.62611328 35.35009766 -2.26388672 35.35009766 -13.48388672 35.35009766 C-13.48388672 40.96009766 -13.48388672 46.57009766 -13.48388672 52.35009766 C-16.78388672 52.35009766 -20.08388672 52.35009766 -23.48388672 52.35009766 C-23.60772795 46.05134207 -23.6983415 39.75329917 -23.75854492 33.45361328 C-23.78364835 31.3118861 -23.8177384 29.17024425 -23.86108398 27.02880859 C-23.92191822 23.94558636 -23.95013853 20.86349923 -23.97216797 17.77978516 C-23.9979744 16.8264328 -24.02378082 15.87308044 -24.05036926 14.89083862 C-24.05224689 10.41383381 -23.96054044 7.32615805 -21.07836914 3.76074219 C-15.42573459 -1.49136222 -7.34501902 0.048469 0 0 Z " fill="#7FB582" transform="translate(45.48388671875,51.64990234375)"/>
<path d="M0 0 C0.88446304 -0.0071553 1.76892609 -0.01431061 2.68019104 -0.02168274 C3.64801514 -0.02437164 4.61583923 -0.02706055 5.61299133 -0.02983093 C6.63445755 -0.03640213 7.65592377 -0.04297333 8.70834351 -0.04974365 C12.09493583 -0.06948314 15.48148377 -0.08114137 18.86811829 -0.09111023 C20.02483347 -0.09518576 21.18154865 -0.09926128 22.37331581 -0.10346031 C28.49682563 -0.12432483 34.62031302 -0.13862435 40.74385071 -0.147995 C47.0644707 -0.15905408 53.38473813 -0.19344755 59.70523357 -0.23316669 C64.56863045 -0.25933155 69.43194336 -0.2676868 74.29540443 -0.27127647 C76.62495616 -0.27614352 78.95450412 -0.28776079 81.28398705 -0.30631447 C84.5488858 -0.33069994 87.81287286 -0.32974142 91.07783508 -0.32279968 C92.03553802 -0.33560974 92.99324097 -0.3484198 93.97996521 -0.36161804 C101.50991003 -0.3034289 106.60159249 1.63755616 112.41889954 6.39717102 C117.96024846 13.16993082 119.26015313 19.01604291 119.18647766 27.65888977 C119.19348694 28.68108612 119.20049622 29.70328247 119.2077179 30.75645447 C119.22524072 34.11614101 119.2136949 37.47497676 119.20014954 40.83467102 C119.20284608 43.18061992 119.20672985 45.52656773 119.21174622 47.87251282 C119.21763356 52.78155695 119.20910259 57.69030932 119.19038391 62.59931946 C119.16759529 68.88063788 119.1807224 75.16127256 119.20467377 81.44256592 C119.21915214 86.28455219 119.2145163 91.12637731 119.2041626 95.96836853 C119.20150097 98.28394146 119.20474513 100.5995292 119.21408081 102.91508484 C119.2242796 106.15559961 119.20869756 109.39501875 119.18647766 112.63545227 C119.19457458 113.58529999 119.20267151 114.53514771 119.21101379 115.51377869 C119.11622982 123.00399787 117.15447134 128.10924993 112.41889954 133.89717102 C105.64613973 139.43851995 99.80002765 140.73842461 91.15718079 140.66474915 C89.62388626 140.67526306 89.62388626 140.67526306 88.05961609 140.68598938 C84.69992955 140.7035122 81.3410938 140.69196638 77.98139954 140.67842102 C75.63545064 140.68111756 73.28950283 140.68500133 70.94355774 140.6900177 C66.03451361 140.69590504 61.12576123 140.68737407 56.2167511 140.6686554 C49.93543268 140.64586677 43.654798 140.65899389 37.37350464 140.68294525 C32.53151836 140.69742363 27.68969325 140.69278778 22.84770203 140.68243408 C20.53212909 140.67977246 18.21654136 140.68301661 15.90098572 140.69235229 C12.66047095 140.70255108 9.4210518 140.68696904 6.18061829 140.66474915 C5.23077057 140.67284607 4.28092285 140.68094299 3.30229187 140.68928528 C-4.18792731 140.5945013 -9.29317937 138.63274282 -15.08110046 133.89717102 C-20.61044122 127.13908787 -21.92399761 121.29155236 -21.86454773 112.66719055 C-21.8731633 111.64820679 -21.88177887 110.62922302 -21.89065552 109.57936096 C-21.91325588 106.22930599 -21.90658648 102.88009169 -21.89750671 99.52998352 C-21.90274537 97.188825 -21.90902274 94.8476686 -21.91629028 92.5065155 C-21.92668398 87.60587108 -21.92214826 82.70551721 -21.90751648 77.80488586 C-21.89034203 71.54159653 -21.91381399 65.27922575 -21.94900608 59.01603889 C-21.97102582 54.18254072 -21.96952723 49.3492607 -21.96124077 44.515728 C-21.96042355 42.20738086 -21.96724285 39.89901735 -21.9820118 37.59071732 C-21.99953893 34.35522714 -21.98484527 31.12136686 -21.96220398 27.88594055 C-21.97389618 26.94328339 -21.98558838 26.00062622 -21.99763489 25.02940369 C-21.90012857 18.13994046 -20.05304345 12.95394384 -16.33110046 7.14717102 C-13.97953796 4.89326477 -13.97953796 4.89326477 -11.70610046 3.58467102 C-10.57301453 2.90211243 -10.57301453 2.90211243 -9.41703796 2.20576477 C-6.17382773 0.55986594 -3.58479416 0.01993372 0 0 Z M-17.33110046 13.14717102 C-18.50240359 15.48977728 -18.4617631 16.87452849 -18.47154236 19.48536682 C-18.4772525 20.39658798 -18.48296265 21.30780914 -18.48884583 22.24664307 C-18.48996368 23.24925674 -18.49108154 24.25187042 -18.49223328 25.28486633 C-18.49719818 26.33865982 -18.50216309 27.39245331 -18.50727844 28.47817993 C-18.52192724 31.97722519 -18.52870709 35.47622509 -18.53422546 38.97529602 C-18.53997529 41.40187075 -18.54573304 43.82844545 -18.55149841 46.25502014 C-18.56201656 51.34944369 -18.5678537 56.44385142 -18.57133484 61.5382843 C-18.57681702 68.0664481 -18.60083595 74.59440305 -18.62930679 81.12250137 C-18.64793164 86.13765574 -18.65313873 91.15275983 -18.65467072 96.16794586 C-18.65769881 98.57449738 -18.66573256 100.98104797 -18.6788559 103.38756561 C-18.69591049 106.75583762 -18.69403714 110.12359991 -18.68754578 113.49189758 C-18.69676056 114.48641434 -18.70597534 115.48093109 -18.71546936 116.50558472 C-18.67795711 122.71928853 -18.01550295 127.29536704 -13.57719421 132.01045227 C-12.68194031 132.72781555 -12.68194031 132.72781555 -11.76860046 133.45967102 C-11.1691864 133.95080383 -10.56977234 134.44193665 -9.95219421 134.94795227 C-7.16251496 137.01164271 -5.40936509 137.27481609 -1.99290466 137.28761292 C-1.0816835 137.29332306 -0.17046234 137.2990332 0.76837158 137.30491638 C1.77098526 137.30603424 2.77359894 137.3071521 3.80659485 137.30830383 C4.86038834 137.31326874 5.91418182 137.31823364 6.99990845 137.323349 C10.4989537 137.3379978 13.99795361 137.34477765 17.49702454 137.35029602 C19.92359926 137.35604585 22.35017397 137.3618036 24.77674866 137.36756897 C29.8711722 137.37808711 34.96557993 137.38392425 40.06001282 137.3874054 C46.58817661 137.39288758 53.11613156 137.41690651 59.64422989 137.44537735 C64.65938425 137.4640022 69.67448835 137.46920929 74.68967438 137.47074127 C77.09622589 137.47376936 79.50277649 137.48180312 81.90929413 137.49492645 C85.27756614 137.51198105 88.64532842 137.5101077 92.0136261 137.50361633 C93.50540123 137.51743851 93.50540123 137.51743851 95.02731323 137.53153992 C101.24094672 137.49402809 105.78045338 136.8115658 110.53218079 132.42842102 C111.01042297 131.84060852 111.48866516 131.25279602 111.98139954 130.64717102 C112.47253235 130.05935852 112.96366516 129.47154602 113.46968079 128.86592102 C115.56078434 125.86889964 115.79700746 123.22722039 115.81607056 119.6887207 C115.82322586 118.77612488 115.83038116 117.86352905 115.8377533 116.92327881 C115.8404422 115.92426041 115.8431311 114.925242 115.84590149 113.89595032 C115.85575829 112.31504105 115.85575829 112.31504105 115.86581421 110.70219421 C115.88555216 107.20859204 115.89721023 103.71503283 115.90718079 100.22138977 C115.91125631 99.0290806 115.91533184 97.83677143 115.91953087 96.60833168 C115.94039253 90.29909564 115.95469454 83.98988136 115.96406555 77.68061829 C115.97513731 71.160268 116.00954621 64.64025828 116.04923725 58.1200285 C116.07536437 53.10916503 116.08375388 48.09838325 116.08734703 43.08745766 C116.09222213 40.6836854 116.10386221 38.279917 116.12238503 35.87621117 C116.14669518 32.51272331 116.145826 29.15012387 116.13887024 25.78657532 C116.1516803 24.79362961 116.16449036 23.8006839 116.1776886 22.77764893 C116.12580917 15.8961575 114.91446582 12.48796175 110.07124329 7.50263977 C106.04425155 4.29178502 103.31129188 3.02747997 98.21044922 3 C97.29785339 2.9928447 96.38525757 2.98568939 95.44500732 2.97831726 C94.44598892 2.97562836 93.44697052 2.97293945 92.41767883 2.97016907 C91.36373932 2.96359787 90.3097998 2.95702667 89.22392273 2.95025635 C85.73032055 2.93051839 82.23676135 2.91886032 78.74311829 2.90888977 C77.55080912 2.90481424 76.35849995 2.90073872 75.1300602 2.89653969 C68.82082415 2.87567802 62.51160988 2.86137602 56.2023468 2.852005 C49.68199651 2.84093325 43.1619868 2.80652435 36.64175701 2.76683331 C31.63089355 2.74070619 26.62011177 2.73231667 21.60918617 2.72872353 C19.20541391 2.72384843 16.80164552 2.71220835 14.39793968 2.69368553 C11.03445183 2.66937538 7.67185238 2.67024456 4.30830383 2.67720032 C3.31535812 2.66439026 2.32241241 2.6515802 1.29937744 2.63838196 C-7.806496 2.70703095 -11.91366778 6.02711664 -17.33110046 13.14717102 Z " fill="#2E412E" transform="translate(28.331100463867188,10.852828979492188)"/>
<path d="M0 0 C3.3 0 6.6 0 10 0 C10 6.93 10 13.86 10 21 C21.22 21 32.44 21 44 21 C44 14.07 44 7.14 44 0 C47.3 0 50.6 0 54 0 C54 17.16 54 34.32 54 52 C50.7 52 47.4 52 44 52 C44 45.07 44 38.14 44 31 C32.78 31 21.56 31 10 31 C10 37.93 10 44.86 10 52 C6.7 52 3.4 52 0 52 C0 34.84 0 17.68 0 0 Z " fill="#7FB482" transform="translate(80,52)"/>
<path d="M0 0 C10.89 0 21.78 0 33 0 C33 4.95 33 9.9 33 15 C22.11 15 11.22 15 0 15 C0 10.05 0 5.1 0 0 Z " fill="#161F16" transform="translate(32,62)"/>
<path d="M0 0 C1.18776537 2.37553074 1.0882153 3.71321373 1.02172852 6.35791016 C0.99158409 7.70908432 0.99158409 7.70908432 0.96083069 9.08755493 C0.92027809 10.54855118 0.92027809 10.54855118 0.87890625 12.0390625 C0.84348976 13.53305069 0.84348976 13.53305069 0.80735779 15.05722046 C0.73062353 18.24662181 0.64664116 21.43578628 0.5625 24.625 C0.50928909 26.78384247 0.45654864 28.9426966 0.40429688 31.1015625 C0.27499515 36.40119241 0.13919155 41.70062099 0 47 C3.63 47 7.26 47 11 47 C10.96519531 46.09636719 10.93039063 45.19273438 10.89453125 44.26171875 C10.86746094 43.08222656 10.84039062 41.90273437 10.8125 40.6875 C10.76029297 38.92986328 10.76029297 38.92986328 10.70703125 37.13671875 C11 34 11 34 12.16040039 32.32446289 C14.73858827 30.46823605 16.57090932 30.6431106 19.7265625 30.671875 C20.8403125 30.67703125 21.9540625 30.6821875 23.1015625 30.6875 C24.26429687 30.708125 25.42703125 30.72875 26.625 30.75 C28.38070313 30.75773437 28.38070313 30.75773437 30.171875 30.765625 C38.84612851 30.84612851 38.84612851 30.84612851 40 32 C40.07244053 34.01964199 40.08377188 36.04167124 40.0625 38.0625 C40.05347656 39.16722656 40.04445312 40.27195313 40.03515625 41.41015625 C40.02355469 42.26480469 40.01195312 43.11945313 40 44 C38 42 38 42 37.8046875 40.0546875 C37.86979167 38.03645833 37.93489583 36.01822917 38 34 C37.4946875 34.16886719 36.989375 34.33773437 36.46875 34.51171875 C31.89343367 35.41664682 27.17102999 34.84089989 22.53125 34.64453125 C18.97800943 34.70785773 18.97800943 34.70785773 16.5234375 36.76171875 C14.81389981 39.27342412 14.67865306 40.07013288 15.125 43 C15.234375 45.09375 15.234375 45.09375 15 47 C11.85411416 49.99608175 9.9578476 50.92904833 5.625 51.25 C4.75875 51.1675 3.8925 51.085 3 51 C3 50.34 3 49.68 3 49 C2.37561035 48.8973584 1.7512207 48.7947168 1.10791016 48.68896484 C-1 48 -1 48 -2.7265625 44.9765625 C-4.77258737 38.74965098 -4.44641523 32.11004267 -4.39111328 25.62695312 C-4.37498631 23.37308691 -4.39103953 21.12100021 -4.41015625 18.8671875 C-4.40817447 17.41926692 -4.40433214 15.97134744 -4.3984375 14.5234375 C-4.39505371 13.22325684 -4.39166992 11.92307617 -4.38818359 10.58349609 C-3.95412336 6.57649221 -2.93483558 2.93483558 0 0 Z " fill="#2C3D2C" transform="translate(22,57)"/>
<path d="M0 0 C11.22 0 22.44 0 34 0 C34 6.93 34 13.86 34 21 C33.34 20.67 32.68 20.34 32 20 C32 19.34 32 18.68 32 18 C31.34 18 30.68 18 30 18 C29.8289558 16.62553768 29.66341273 15.25039051 29.5 13.875 C29.4071875 13.10929687 29.314375 12.34359375 29.21875 11.5546875 C28.97539022 8.71259293 29 5.85249462 29 3 C21.41 3.33 13.82 3.66 6 4 C3.86243807 8.27512386 3.65824876 11.00853469 3.44140625 15.66015625 C3 18 3 18 0 21 C0 14.07 0 7.14 0 0 Z " fill="#314532" transform="translate(90,83)"/>
<path d="M0 0 C1.62463842 -0.05395478 3.24978541 -0.09277195 4.875 -0.125 C6.23238281 -0.15980469 6.23238281 -0.15980469 7.6171875 -0.1953125 C10 0 10 0 12 2 C12.24050903 4.13870239 12.24050903 4.13870239 12.22705078 6.81689453 C12.22689972 7.81778107 12.22674866 8.8186676 12.22659302 9.84988403 C12.21627045 10.93325043 12.20594788 12.01661682 12.1953125 13.1328125 C12.1924826 14.23978485 12.18965271 15.3467572 12.18673706 16.48727417 C12.17551519 20.03329137 12.15040691 23.57905875 12.125 27.125 C12.1149728 29.52473594 12.1058465 31.92447583 12.09765625 34.32421875 C12.07556932 40.21623151 12.04207207 46.10809791 12 52 C11.34 52 10.68 52 10 52 C10 35.5 10 19 10 2 C6.7 2 3.4 2 0 2 C0 8.93 0 15.86 0 23 C-11.22 23 -22.44 23 -34 23 C-34 16.07 -34 9.14 -34 2 C-33.67 2 -33.34 2 -33 2 C-32.93941406 3.28777344 -32.87882812 4.57554688 -32.81640625 5.90234375 C-32.73201753 7.58074159 -32.6473687 9.25912636 -32.5625 10.9375 C-32.52318359 11.78763672 -32.48386719 12.63777344 -32.44335938 13.51367188 C-32.40146484 14.32255859 -32.35957031 15.13144531 -32.31640625 15.96484375 C-32.26141968 17.08814087 -32.26141968 17.08814087 -32.20532227 18.23413086 C-32.18228937 20.02461326 -32.18228937 20.02461326 -31 21 C-29.09715013 21.09974389 -27.19061747 21.1308063 -25.28515625 21.1328125 C-24.12435547 21.13410156 -22.96355469 21.13539062 -21.76757812 21.13671875 C-20.54490234 21.13285156 -19.32222656 21.12898438 -18.0625 21.125 C-16.84369141 21.12886719 -15.62488281 21.13273437 -14.36914062 21.13671875 C-13.20705078 21.13542969 -12.04496094 21.13414063 -10.84765625 21.1328125 C-9.77523682 21.13168457 -8.70281738 21.13055664 -7.59790039 21.12939453 C-5.0155356 21.17533698 -5.0155356 21.17533698 -3 20 C-2.73874918 17.37264802 -2.57834501 14.82127489 -2.5 12.1875 C-2.23545928 3.43431446 -2.23545928 3.43431446 0 0 Z " fill="#354B36" transform="translate(124,50)"/>
<path d="M0 0 C10.89 0 21.78 0 33 0 C33 4.95 33 9.9 33 15 C22.11 15 11.22 15 0 15 C0 10.05 0 5.1 0 0 Z M3 4 C2.75746187 6.21072977 2.75746187 6.21072977 2.875 8.625 C2.89304688 9.44226563 2.91109375 10.25953125 2.9296875 11.1015625 C2.95289063 11.72804688 2.97609375 12.35453125 3 13 C7.12494151 13.05784708 11.24977944 13.09354407 15.375 13.125 C16.550625 13.14175781 17.72625 13.15851563 18.9375 13.17578125 C20.05898438 13.18222656 21.18046875 13.18867187 22.3359375 13.1953125 C23.37282715 13.20578613 24.4097168 13.21625977 25.47802734 13.22705078 C28.17108623 13.25615026 28.17108623 13.25615026 30 11 C30.16677282 7.41656024 30.16677282 7.41656024 30 4 C26.90708568 2.2033085 24.64809591 1.74387228 21.0859375 1.734375 C20.16039063 1.73179688 19.23484375 1.72921875 18.28125 1.7265625 C17.3221875 1.73429687 16.363125 1.74203125 15.375 1.75 C13.92480469 1.73839844 13.92480469 1.73839844 12.4453125 1.7265625 C11.52234375 1.72914062 10.599375 1.73171875 9.6484375 1.734375 C8.38265869 1.73775879 8.38265869 1.73775879 7.09130859 1.74121094 C4.78050676 1.80954947 4.78050676 1.80954947 3 4 Z " fill="#456146" transform="translate(32,62)"/>
<path d="M0 0 C2.0625 0.4375 2.0625 0.4375 4 1 C4.02887814 4.47914941 4.04675687 7.95826831 4.0625 11.4375 C4.07087891 12.43072266 4.07925781 13.42394531 4.08789062 14.44726562 C4.09272461 15.86362305 4.09272461 15.86362305 4.09765625 17.30859375 C4.10551147 18.62041626 4.10551147 18.62041626 4.11352539 19.95874023 C4 22 4 22 3 23 C1.43827255 23.08685603 -0.12729344 23.10702219 -1.69140625 23.09765625 C-2.63564453 23.09443359 -3.57988281 23.09121094 -4.55273438 23.08789062 C-6.04256836 23.07532227 -6.04256836 23.07532227 -7.5625 23.0625 C-8.55958984 23.05798828 -9.55667969 23.05347656 -10.58398438 23.04882812 C-13.05604849 23.03700007 -15.52799518 23.02051849 -18 23 C-18.5625 21.0625 -18.5625 21.0625 -19 19 C-18 18 -18 18 -14.18359375 17.90234375 C-12.60153318 17.90901911 -11.01948841 17.92098125 -9.4375 17.9375 C-8.63119141 17.94201172 -7.82488281 17.94652344 -6.99414062 17.95117188 C-4.99606244 17.96299482 -2.99802217 17.98093086 -1 18 C-1.01160156 16.78441406 -1.02320313 15.56882813 -1.03515625 14.31640625 C-1.04453278 12.73177236 -1.05363313 11.14713682 -1.0625 9.5625 C-1.07087891 8.76005859 -1.07925781 7.95761719 -1.08789062 7.13085938 C-1.0965143 5.08704779 -1.0522815 3.04316098 -1 1 C-0.67 0.67 -0.34 0.34 0 0 Z " fill="#4F6F51" transform="translate(134,119)"/>
<path d="M0 0 C0.87454834 0.00523682 1.74909668 0.01047363 2.65014648 0.01586914 C3.59438477 0.0190918 4.53862305 0.02231445 5.51147461 0.02563477 C6.50469727 0.03401367 7.49791992 0.04239258 8.52124023 0.05102539 C9.51833008 0.05553711 10.51541992 0.06004883 11.54272461 0.06469727 C14.01478872 0.07652532 16.48673541 0.0930069 18.95874023 0.11352539 C19.52124023 2.05102539 19.52124023 2.05102539 19.95874023 4.11352539 C18.95874023 5.11352539 18.95874023 5.11352539 15.14233398 5.21118164 C13.56026976 5.20543677 11.97822992 5.19242132 10.39624023 5.17602539 C6.21967773 5.14508789 6.21967773 5.14508789 1.95874023 5.11352539 C1.95874023 10.72352539 1.95874023 16.33352539 1.95874023 22.11352539 C0.63874023 22.44352539 -0.68125977 22.77352539 -2.04125977 23.11352539 C-3.66326491 21.49152024 -3.17116727 19.69329509 -3.17407227 17.45727539 C-3.17536133 16.51754883 -3.17665039 15.57782227 -3.17797852 14.60961914 C-3.17411133 13.6209082 -3.17024414 12.63219727 -3.16625977 11.61352539 C-3.17012695 10.62481445 -3.17399414 9.63610352 -3.17797852 8.61743164 C-3.17668945 7.67770508 -3.17540039 6.73797852 -3.17407227 5.76977539 C-3.17294434 4.9015918 -3.17181641 4.0334082 -3.1706543 3.13891602 C-2.99464835 0.38392477 -2.75766937 0.15336877 0 0 Z " fill="#4F6F51" transform="translate(19.041259765625,19.886474609375)"/>
<path d="M0 0 C0.66 0 1.32 0 2 0 C2.15221925 6.8865118 2.25724395 13.77258945 2.32958984 20.66040039 C2.35975015 23.00301322 2.40068517 25.34551325 2.45263672 27.68774414 C2.52548101 31.05643541 2.55946479 34.42363323 2.5859375 37.79296875 C2.61690521 38.83897751 2.64787292 39.88498627 2.67977905 40.96269226 C2.68305464 48.05065361 2.68305464 48.05065361 0.7144165 50.78677368 C-1.58159156 52.78191792 -3.5733694 53.91675501 -6.5625 54.5 C-9.50945701 53.895496 -11.5321904 52.6922123 -14 51 C-13.67 50.34 -13.34 49.68 -13 49 C-9.37 49.33 -5.74 49.66 -2 50 C-2 49.34 -2 48.68 -2 48 C-1.34 48 -0.68 48 0 48 C0 32.16 0 16.32 0 0 Z " fill="#253325" transform="translate(136,54)"/>
<path d="M0 0 C0.93199219 -0.00257812 1.86398438 -0.00515625 2.82421875 -0.0078125 C3.80003906 -0.00007813 4.77585937 0.00765625 5.78125 0.015625 C6.75707031 0.00789063 7.73289062 0.00015625 8.73828125 -0.0078125 C9.67027344 -0.00523438 10.60226563 -0.00265625 11.5625 0 C12.41908203 0.00225586 13.27566406 0.00451172 14.15820312 0.00683594 C16.28125 0.265625 16.28125 0.265625 18.28125 2.265625 C11.68125 2.595625 5.08125 2.925625 -1.71875 3.265625 C-2.37875 5.245625 -3.03875 7.225625 -3.71875 9.265625 C3.54125 8.935625 10.80125 8.605625 18.28125 8.265625 C18.61125 6.285625 18.94125 4.305625 19.28125 2.265625 C19.61125 2.265625 19.94125 2.265625 20.28125 2.265625 C20.40625 5.640625 20.40625 5.640625 20.28125 9.265625 C18.28125 11.265625 18.28125 11.265625 15.75927734 11.49267578 C14.7223877 11.48220215 13.68549805 11.47172852 12.6171875 11.4609375 C11.49570312 11.45449219 10.37421875 11.44804688 9.21875 11.44140625 C8.043125 11.42464844 6.8675 11.40789062 5.65625 11.390625 C3.88121094 11.37708984 3.88121094 11.37708984 2.0703125 11.36328125 C-0.85957523 11.33965312 -3.7890634 11.30671014 -6.71875 11.265625 C-6.77274736 9.80769616 -6.81154177 8.34919788 -6.84375 6.890625 C-6.87855469 5.67246094 -6.87855469 5.67246094 -6.9140625 4.4296875 C-6.51089698 -0.03738642 -3.79888803 0.0100046 0 0 Z " fill="#2A3B2B" transform="translate(41.71875,63.734375)"/>
<path d="M0 0 C0.95310059 0.01047363 1.90620117 0.02094727 2.88818359 0.03173828 C4.43505859 0.04140625 4.43505859 0.04140625 6.01318359 0.05126953 C7.63353516 0.07640625 7.63353516 0.07640625 9.28662109 0.10205078 C10.37458984 0.11107422 11.46255859 0.12009766 12.58349609 0.12939453 C15.27642261 0.15301669 17.96891365 0.18595522 20.66162109 0.22705078 C20.33162109 0.88705078 20.00162109 1.54705078 19.66162109 2.22705078 C9.26662109 2.72205078 9.26662109 2.72205078 -1.33837891 3.22705078 C-2.52293656 6.22394375 -2.52293656 6.22394375 -2.27587891 9.53955078 C-2.34012279 13.3299398 -2.7086231 15.81232432 -4.33837891 19.22705078 C-7.07512965 21.5076764 -8.79627057 22.17058116 -12.33837891 22.53955078 C-15.35807648 22.22499895 -17.60289181 21.51433883 -20.33837891 20.22705078 C-20.33837891 19.89705078 -20.33837891 19.56705078 -20.33837891 19.22705078 C-16.70837891 19.55705078 -13.07837891 19.88705078 -9.33837891 20.22705078 C-9.33837891 19.56705078 -9.33837891 18.90705078 -9.33837891 18.22705078 C-8.62875 17.62570313 -8.62875 17.62570313 -7.90478516 17.01220703 C-5.63089949 14.42077124 -5.66542342 12.04942786 -5.27587891 8.66455078 C-4.31062813 0.41855128 -4.31062813 0.41855128 0 0 Z " fill="#1D291E" transform="translate(98.33837890625,85.77294921875)"/>
<path d="M0 0 C0.79921875 0.11085937 1.5984375 0.22171875 2.421875 0.3359375 C3.02515625 0.43132813 3.6284375 0.52671875 4.25 0.625 C3.92 1.285 3.59 1.945 3.25 2.625 C-0.05 2.625 -3.35 2.625 -6.75 2.625 C-8.25593641 7.14280924 -8.14137274 11.73649338 -8.37109375 16.47265625 C-8.75 19.625 -8.75 19.625 -10.75 21.625 C-13.27197266 21.85205078 -13.27197266 21.85205078 -16.4140625 21.8203125 C-17.53554687 21.81386719 -18.65703125 21.80742188 -19.8125 21.80078125 C-20.988125 21.78402344 -22.16375 21.76726562 -23.375 21.75 C-25.15003906 21.73646484 -25.15003906 21.73646484 -26.9609375 21.72265625 C-29.89082523 21.69902812 -32.8203134 21.66608514 -35.75 21.625 C-32.83175756 19.95825679 -30.77405621 19.3817992 -27.421875 19.4296875 C-26.62265625 19.43613281 -25.8234375 19.44257812 -25 19.44921875 C-24.175 19.46597656 -23.35 19.48273438 -22.5 19.5 C-21.65953125 19.50902344 -20.8190625 19.51804687 -19.953125 19.52734375 C-17.88529396 19.55084183 -15.81761005 19.58671092 -13.75 19.625 C-12.17333648 16.80909122 -11.74933397 15.66029954 -11.8125 12.3125 C-11.73593109 7.79493434 -10.91549027 5.56928586 -8.75 1.625 C-5.68302898 -0.44388347 -3.6061292 -0.53031312 0 0 Z " fill="#202D20" transform="translate(130.75,48.375)"/>
<path d="M0 0 C1.17626953 -0.01224609 2.35253906 -0.02449219 3.56445312 -0.03710938 C10.21412415 -0.0482603 16.16726875 0.30265935 22.5625 2.1875 C23.2225 2.8475 23.8825 3.5075 24.5625 4.1875 C23.92062744 4.02596436 23.27875488 3.86442871 22.61743164 3.69799805 C18.62053604 3.03009197 14.72909175 3.02505696 10.68359375 3.01953125 C9.83450943 3.01620285 8.98542511 3.01287445 8.11061096 3.00944519 C6.32122335 3.00439678 4.53182637 3.00203622 2.74243164 3.00219727 C0.00586535 3.0000047 -2.73030149 2.98181045 -5.46679688 2.96289062 C-7.20833196 2.95995748 -8.94986895 2.95797216 -10.69140625 2.95703125 C-11.50815323 2.94984573 -12.32490021 2.94266022 -13.16639709 2.93525696 C-18.64455321 2.88183574 -18.64455321 2.88183574 -23.4375 5.1875 C-25.10416667 8.10416667 -25.10416667 8.10416667 -26.4375 11.1875 C-27.4275 12.6725 -27.4275 12.6725 -28.4375 14.1875 C-29.0975 13.8575 -29.7575 13.5275 -30.4375 13.1875 C-27.37178871 5.01797885 -27.37178871 5.01797885 -24.1875 2.1875 C-16.54867956 -0.59025289 -8.01102524 0.00437522 0 0 Z " fill="#1E2A1E" transform="translate(48.4375,46.8125)"/>
<path d="M0 0 C11.22 0 22.44 0 34 0 C34 6.27 34 12.54 34 19 C33.67 19 33.34 19 33 19 C33 13.39 33 7.78 33 2 C28.90639692 1.95411902 24.8134478 1.91428562 20.71972656 1.89013672 C19.32679219 1.88007123 17.93387898 1.86641766 16.54101562 1.84912109 C14.5404564 1.8248978 12.53974385 1.81459186 10.5390625 1.8046875 C9.33459473 1.79421387 8.13012695 1.78374023 6.88916016 1.77294922 C3.87158505 1.69539186 3.87158505 1.69539186 2 4 C1.69324768 6.89967757 1.48826629 9.71783178 1.375 12.625 C1.33632812 13.42679688 1.29765625 14.22859375 1.2578125 15.0546875 C1.16346069 17.03607556 1.08063785 19.01800645 1 21 C0.67 21 0.34 21 0 21 C0 14.07 0 7.14 0 0 Z " fill="#4C6B4E" transform="translate(90,83)"/>
<path d="M0 0 C0.33 0 0.66 0 1 0 C1.06058594 1.28777344 1.12117188 2.57554688 1.18359375 3.90234375 C1.26798247 5.58074159 1.3526313 7.25912636 1.4375 8.9375 C1.47681641 9.78763672 1.51613281 10.63777344 1.55664062 11.51367188 C1.59853516 12.32255859 1.64042969 13.13144531 1.68359375 13.96484375 C1.72025146 14.7137085 1.75690918 15.46257324 1.79467773 16.23413086 C1.81771063 18.02461326 1.81771063 18.02461326 3 19 C4.90284987 19.09974389 6.80938253 19.1308063 8.71484375 19.1328125 C9.87564453 19.13410156 11.03644531 19.13539062 12.23242188 19.13671875 C13.45509766 19.13285156 14.67777344 19.12898438 15.9375 19.125 C17.15630859 19.12886719 18.37511719 19.13273437 19.63085938 19.13671875 C20.79294922 19.13542969 21.95503906 19.13414063 23.15234375 19.1328125 C24.22476318 19.13168457 25.29718262 19.13055664 26.40209961 19.12939453 C28.9844644 19.17533698 28.9844644 19.17533698 31 18 C32.00259507 14.99221479 32.30314642 12.46179353 32.5625 9.3125 C32.64628906 8.31863281 32.73007813 7.32476562 32.81640625 6.30078125 C32.87699219 5.54152344 32.93757813 4.78226563 33 4 C33.33 4 33.66 4 34 4 C34 9.61 34 15.22 34 21 C22.78 21 11.56 21 0 21 C0 14.07 0 7.14 0 0 Z " fill="#4B6A4D" transform="translate(90,52)"/>
<path d="M0 0 C10.89 0 21.78 0 33 0 C33 5.61 33 11.22 33 17 C32.67 17 32.34 17 32 17 C31.95101562 16.08476563 31.90203125 15.16953125 31.8515625 14.2265625 C31.77679688 13.03804687 31.70203125 11.84953125 31.625 10.625 C31.55539063 9.44164063 31.48578125 8.25828125 31.4140625 7.0390625 C31.29782654 3.89437681 31.29782654 3.89437681 29 2 C26.41255561 1.68866414 26.41255561 1.68866414 23.40625 1.734375 C22.29378906 1.73179688 21.18132813 1.72921875 20.03515625 1.7265625 C18.86855469 1.73429687 17.70195313 1.74203125 16.5 1.75 C15.33339844 1.74226563 14.16679688 1.73453125 12.96484375 1.7265625 C11.85238281 1.72914062 10.73992188 1.73171875 9.59375 1.734375 C8.05750977 1.73775879 8.05750977 1.73775879 6.49023438 1.74121094 C3.82617797 1.75366928 3.82617797 1.75366928 2 4 C1.53513282 7.12196336 1.53513282 7.12196336 1.375 10.625 C1.30023438 11.81351563 1.22546875 13.00203125 1.1484375 14.2265625 C1.09945312 15.14179687 1.05046875 16.05703125 1 17 C0.67 17 0.34 17 0 17 C0 11.39 0 5.78 0 0 Z " fill="#4B6A4D" transform="translate(32,87)"/>
<path d="M0 0 C1.00023193 0.00523682 2.00046387 0.01047363 3.03100586 0.01586914 C4.1105957 0.0190918 5.19018555 0.02231445 6.30249023 0.02563477 C8.00695312 0.03820312 8.00695312 0.03820312 9.74584961 0.05102539 C11.45611328 0.05779297 11.45611328 0.05779297 13.20092773 0.06469727 C16.02842379 0.07652779 18.85589306 0.09446389 21.68334961 0.11352539 C21.68334961 3.74352539 21.68334961 7.37352539 21.68334961 11.11352539 C19.68334961 9.11352539 19.68334961 9.11352539 19.48803711 7.16821289 C19.55314128 5.14998372 19.61824544 3.13175456 19.68334961 1.11352539 C19.17674805 1.28239258 18.67014648 1.45125977 18.14819336 1.62524414 C13.60459481 2.52532309 8.92006348 1.95481506 4.31225586 1.75805664 C0.1572977 2.1650547 -1.38078701 3.23422971 -4.31665039 6.11352539 C-3.24791838 0.15916135 -3.24791838 0.15916135 0 0 Z " fill="#1F2C20" transform="translate(40.316650390625,89.886474609375)"/>
<path d="M0 0 C0.66 0.33 1.32 0.66 2 1 C1.67 1.33 1.34 1.66 1 2 C1 5.3 1 8.6 1 12 C13.87 12.495 13.87 12.495 27 13 C27 13.33 27 13.66 27 14 C17.76 14 8.52 14 -1 14 C-1 1 -1 1 0 0 Z " fill="#435E44" transform="translate(34,63)"/>
<path d="M0 0 C0.99 0.33 1.98 0.66 3 1 C3.02687279 2.81242052 3.04633715 4.62495233 3.0625 6.4375 C3.07410156 7.44683594 3.08570312 8.45617187 3.09765625 9.49609375 C3 12 3 12 2 13 C0.21928754 13.08726223 -1.5648314 13.10699041 -3.34765625 13.09765625 C-4.42724609 13.09443359 -5.50683594 13.09121094 -6.61914062 13.08789062 C-7.75544922 13.07951172 -8.89175781 13.07113281 -10.0625 13.0625 C-11.20267578 13.05798828 -12.34285156 13.05347656 -13.51757812 13.04882812 C-16.34510351 13.03699747 -19.1725264 13.0205141 -22 13 C-22 12.67 -22 12.34 -22 12 C-21.37432129 11.98018066 -20.74864258 11.96036133 -20.10400391 11.93994141 C-17.27723481 11.84485774 -14.45122185 11.73511254 -11.625 11.625 C-10.64015625 11.5940625 -9.6553125 11.563125 -8.640625 11.53125 C-7.69960938 11.49257812 -6.75859375 11.45390625 -5.7890625 11.4140625 C-4.91975098 11.3826416 -4.05043945 11.3512207 -3.15478516 11.31884766 C-0.79038206 11.18770567 -0.79038206 11.18770567 1 9 C1.40047444 6.67724823 1.7397104 4.34260643 2 2 C1.34 2 0.68 2 0 2 C0 1.34 0 0.68 0 0 Z " fill="#3A513B" transform="translate(61,63)"/>
<path d="M0 0 C0.91120605 0.01047363 1.82241211 0.02094727 2.76123047 0.03173828 C3.74736328 0.03818359 4.73349609 0.04462891 5.74951172 0.05126953 C7.29832031 0.07640625 7.29832031 0.07640625 8.87841797 0.10205078 C9.91869141 0.11107422 10.95896484 0.12009766 12.03076172 0.12939453 C14.60520889 0.15301331 17.17920009 0.18594929 19.75341797 0.22705078 C19.75341797 0.55705078 19.75341797 0.88705078 19.75341797 1.22705078 C13.15341797 1.55705078 6.55341797 1.88705078 -0.24658203 2.22705078 C-0.90658203 4.20705078 -1.56658203 6.18705078 -2.24658203 8.22705078 C-2.90658203 7.89705078 -3.56658203 7.56705078 -4.24658203 7.22705078 C-4.37158203 4.85205078 -4.37158203 4.85205078 -4.24658203 2.22705078 C-2.24658203 0.22705078 -2.24658203 0.22705078 0 0 Z " fill="#1F2C20" transform="translate(40.24658203125,64.77294921875)"/>
<path d="M0 0 C0.99 0 1.98 0 3 0 C3 4.62 3 9.24 3 14 C2.34 14 1.68 14 1 14 C-0.14806378 4.58997722 -0.14806378 4.58997722 0 0 Z " fill="#233224" transform="translate(119,87)"/>
<path d="M0 0 C0.33 0 0.66 0 1 0 C1.04241723 2.33294775 1.04092937 4.66702567 1 7 C0 8 0 8 -2.13305664 8.11352539 C-3.04949951 8.10828857 -3.96594238 8.10305176 -4.91015625 8.09765625 C-5.89951172 8.09443359 -6.88886719 8.09121094 -7.90820312 8.08789062 C-8.94912109 8.07951172 -9.99003906 8.07113281 -11.0625 8.0625 C-12.10728516 8.05798828 -13.15207031 8.05347656 -14.22851562 8.04882812 C-16.8190666 8.03699913 -19.40950559 8.02051689 -22 8 C-22 7.67 -22 7.34 -22 7 C-11.605 6.505 -11.605 6.505 -1 6 C-0.67 4.02 -0.34 2.04 0 0 Z " fill="#223023" transform="translate(61,66)"/>
<path d="M0 0 C2.76288071 0.47363669 5.05925514 1.0268059 7.625 2.1875 C8.40875 2.455625 9.1925 2.72375 10 3 C10.99 2.34 11.98 1.68 13 1 C11.25 5.875 11.25 5.875 9 7 C5.38337216 5.19168608 2.74395564 2.94721162 0 0 Z " fill="#314532" transform="translate(67,51)"/>
<path d="M0 0 C1.88101041 1.58818821 2.90165342 2.47548493 3.36328125 4.9375 C3.34652344 5.618125 3.32976562 6.29875 3.3125 7 C3.30863281 7.680625 3.30476563 8.36125 3.30078125 9.0625 C3 11 3 11 1 14 C-0.04976964 10.85069107 -0.10131595 8.61185544 -0.0625 5.3125 C-0.05347656 4.31863281 -0.04445313 3.32476562 -0.03515625 2.30078125 C-0.02355469 1.54152344 -0.01195313 0.78226563 0 0 Z " fill="#1D281E" transform="translate(93,54)"/>
<path d="M0 0 C0.33 0.66 0.66 1.32 1 2 C-0.125 3.5 -0.125 3.5 -2 5 C-6.21284637 5.45791808 -9.18791906 4.79392044 -13 3 C-13 2.67 -13 2.34 -13 2 C-9.37 2.33 -5.74 2.66 -2 3 C-2 2.34 -2 1.68 -2 1 C-1.34 0.67 -0.68 0.34 0 0 Z " fill="#223023" transform="translate(91,103)"/>
<path d="M0 0 C2.0625 0.4375 2.0625 0.4375 4 1 C0.7162062 3.48772258 -0.61198583 4.03180444 -4.8125 3.6875 C-5.864375 3.460625 -6.91625 3.23375 -8 3 C-8 2.67 -8 2.34 -8 2 C-6.865625 1.855625 -5.73125 1.71125 -4.5625 1.5625 C-1.19222799 1.38828522 -1.19222799 1.38828522 0 0 Z " fill="#223023" transform="translate(74,104)"/>
<path d="M0 0 C0.33 0 0.66 0 1 0 C1.06058594 0.73605469 1.12117188 1.47210938 1.18359375 2.23046875 C1.26738281 3.20628906 1.35117188 4.18210937 1.4375 5.1875 C1.51871094 6.15042969 1.59992188 7.11335938 1.68359375 8.10546875 C1.97666151 10.78649602 2.42703754 13.3662986 3 16 C2.01 15.67 1.02 15.34 0 15 C0 10.05 0 5.1 0 0 Z " fill="#2C3E2D" transform="translate(92,54)"/>
<path d="M0 0 C-3.33333333 1.66666667 -6.66666667 3.33333333 -10 5 C-9.01906046 2.54765115 -8.31296172 1.2190732 -6.125 -0.3125 C-3.64990694 -1.1132654 -2.41712366 -0.86325845 0 0 Z " fill="#1A251B" transform="translate(31,49)"/>
</svg>
